<?xml version="1.0" encoding="UTF-8" standalone="no"?>
<svg
   xmlns:dc="http://purl.org/dc/elements/1.1/"
   xmlns:cc="http://creativecommons.org/ns#"
   xmlns:rdf="http://www.w3.org/1999/02/22-rdf-syntax-ns#"
   xmlns:svg="http://www.w3.org/2000/svg"
   xmlns="http://www.w3.org/2000/svg"
   viewBox="0 0 56.308655 56.25"
   height="56.25"
   width="56.308655"
   version="1.1"
   id="svg4430">
  <metadata
     id="metadata4436">
    <rdf:RDF>
      <cc:Work
         rdf:about="">
        <dc:format>image/svg+xml</dc:format>
        <dc:type
           rdf:resource="http://purl.org/dc/dcmitype/StillImage" />
        <dc:title></dc:title>
      </cc:Work>
    </rdf:RDF>
  </metadata>
  <defs
     id="defs4434" />
  <path
     id="path4440"
     d="M 8.4060561,36.157782 C 5.6519252,32.767112 2.2685716,28.889451 2.9328388,24.171896 3.7391793,19.418981 4.6787238,14.039771 8.770018,10.955047 12.168382,8.5329175 16.591827,9.1570718 20.491464,9.4801713 c 4.838157,0.5818077 8.788628,4.3529237 10.40864,8.8638437 1.625352,3.499737 2.53744,7.817017 0.443536,11.334932 -11.103967,13.944124 7.747916,9.736317 17.512375,9.926054 l 5.701894,1.924425 -40.500605,0.902805 z M 25.809785,33.448254 c 2.731194,-2.874274 5.329317,-6.969107 3.933347,-11.085596 -2.703821,-9.171526 -5.348075,-9.375529 -13.522926,-10.312263 -2.115283,-0.130316 -4.458351,-0.346931 -6.188031,1.15489 -2.7211471,1.922886 -4.0487618,5.221641 -4.3937162,8.447972 -0.846064,3.352252 -0.3626629,6.974828 1.627866,9.952259 4.3031612,6.43666 11.6284122,11.277463 16.8008962,3.920322 0.581841,-0.691685 1.14797,-1.396813 1.742564,-2.077584 z"
     fill="param(fill) #000" />
</svg>
