<?xml version="1.0" encoding="UTF-8" standalone="no"?>
<svg
   xmlns:dc="http://purl.org/dc/elements/1.1/"
   xmlns:cc="http://creativecommons.org/ns#"
   xmlns:rdf="http://www.w3.org/1999/02/22-rdf-syntax-ns#"
   xmlns:svg="http://www.w3.org/2000/svg"
   xmlns="http://www.w3.org/2000/svg"
   viewBox="0 0 56.308655 56.25"
   height="56.25"
   width="56.308655"
   version="1.1"
   id="svg5681">
  <metadata
     id="metadata5687">
    <rdf:RDF>
      <cc:Work
         rdf:about="">
        <dc:format>image/svg+xml</dc:format>
        <dc:type
           rdf:resource="http://purl.org/dc/dcmitype/StillImage" />
        <dc:title></dc:title>
      </cc:Work>
    </rdf:RDF>
  </metadata>
  <defs
     id="defs5685" />
  <path
     id="path5691"
     d="m 5.882643,13.272099 c 3.5312682,-4.0679538 21.006621,-0.204787 21.006621,-0.204787 0,0 5.611087,-2.771213 9.111777,-0.748335 3.500693,2.022878 6.564476,7.833239 6.42701,13.665796 -0.137465,5.832557 -9.316492,17.606681 -9.316492,17.606681 l 21.892059,1.988191 -44.185247,0.95812 C 3.7633287,38.667818 -2.0792128,22.444003 5.882643,13.272099 Z m 18.312619,3.063533 C 17.744176,11.214752 8.0877158,13.610443 5.2089107,24.025688 1.4086705,34.060101 17.697604,50.975341 24.472267,39.356553 30.214772,31.821044 30.646348,21.456512 24.195262,16.335632 Z m 12.708632,0.120566 c -1.727558,-1.42624 -8.633768,-1.811831 -8.633768,-1.811831 2.350562,5.567627 6.15244,11.467181 4.381105,17.74256 -1.351723,4.301703 -8.519139,11.225264 -8.519139,11.225264 0,0 4.506345,0.107245 6.280548,0.07227 5.205367,-6.522716 10.87167,-22.570308 6.491254,-27.228268 z"
     fill="param(fill) #000" />
</svg>
