<?xml version="1.0" encoding="UTF-8" standalone="no"?>
<svg
   xmlns:dc="http://purl.org/dc/elements/1.1/"
   xmlns:cc="http://creativecommons.org/ns#"
   xmlns:rdf="http://www.w3.org/1999/02/22-rdf-syntax-ns#"
   xmlns:svg="http://www.w3.org/2000/svg"
   xmlns="http://www.w3.org/2000/svg"
   viewBox="0 0 56.308655 56.25"
   height="56.25"
   width="56.308655"
   version="1.1"
   id="svg5092">
  <metadata
     id="metadata5098">
    <rdf:RDF>
      <cc:Work
         rdf:about="">
        <dc:format>image/svg+xml</dc:format>
        <dc:type
           rdf:resource="http://purl.org/dc/dcmitype/StillImage" />
        <dc:title></dc:title>
      </cc:Work>
    </rdf:RDF>
  </metadata>
  <defs
     id="defs5096" />
  <path
     id="path9928"
     d="m 19.490861,16.673707 c -3.42689,0.07523 -5.981492,2.890245 -7.755797,5.465997 -2.8323503,4.111712 -4.3004414,8.940835 -6.0596382,13.591666 -0.5896406,1.558849 0.098376,4.702064 1.9581499,2.982654 2.3431849,-2.166335 3.5403313,-5.238875 5.1553323,-7.941391 1.547366,-2.589336 3.313666,-5.341257 6.102937,-6.761975 1.933922,-0.985046 3.952809,0.454467 5.040761,2.004659 2.035226,2.899937 3.129519,6.2916 4.623129,9.469718 0.503962,1.072335 0.294485,2.96714 1.494547,3.234609 7.311965,1.629683 23.409529,0.578192 23.409529,0.578192 0,0 -11.569374,-0.788018 -19.775961,-3.076604 -1.819805,-5.454174 -4.802666,-12.636775 -8.569113,-16.681995 -1.43839,-1.544853 -3.399501,-2.914361 -5.623876,-2.86553 z"
     fill="param(fill) #000" />
</svg>
