<?xml version="1.0" encoding="UTF-8" standalone="no"?>
<svg
   xmlns:dc="http://purl.org/dc/elements/1.1/"
   xmlns:cc="http://creativecommons.org/ns#"
   xmlns:rdf="http://www.w3.org/1999/02/22-rdf-syntax-ns#"
   xmlns:svg="http://www.w3.org/2000/svg"
   xmlns="http://www.w3.org/2000/svg"
   viewBox="0 0 56.308655 56.25"
   height="56.25"
   width="56.308655"
   version="1.1"
   id="svg5459">
  <metadata
     id="metadata5465">
    <rdf:RDF>
      <cc:Work
         rdf:about="">
        <dc:format>image/svg+xml</dc:format>
        <dc:type
           rdf:resource="http://purl.org/dc/dcmitype/StillImage" />
        <dc:title></dc:title>
      </cc:Work>
    </rdf:RDF>
  </metadata>
  <defs
     id="defs5463" />
  <path
     id="path9687"
     d="M 18.572442,1.7224938 29.127348,11.968256 38.489156,1.5681194 c -1.802468,1.2984101 -9.234909,8.1251198 -9.234909,8.1251198 0,0 -0.510627,-0.9220457 -1.764187,-2.3700531 C 26.236498,5.8751786 23.09835,3.2008818 20.134999,2.2544907 19.618248,2.0676874 19.104954,1.869504 18.572442,1.7224938 Z M 26.521069,13.69326 c -5.65851,0.875607 -10.861905,5.347434 -11.165952,10.754542 -0.167442,3.031017 2.823662,4.949042 5.093706,6.676941 5.415463,3.84336 11.782583,6.498979 16.801376,10.815592 2.057109,1.599488 3.453401,4.687962 1.276881,6.726996 -2.320664,2.701899 -6.551506,3.384277 -9.941324,2.145475 -5.738674,-1.989741 -10.234358,-6.076078 -14.292,-10.161948 -0.930064,-1.128467 -1.275759,-1.328178 -0.688274,0.06475 l 3.21473,9.730553 c 6.044896,1.508924 12.447767,2.541134 18.69563,1.578799 3.233086,-0.443622 6.214015,-2.170124 7.770167,-4.841585 1.727463,-2.277593 2.400741,-5.576168 0.383081,-7.892853 C 40.506763,35.624124 35.5544,33.884209 31.100251,31.902361 27.0057,30.058974 22.428685,28.590316 19.333084,25.373525 c -2.246943,-2.293519 -1.711209,-6.83505 1.731619,-7.866583 3.797015,-0.880829 8.376279,1.332618 10.923202,2.304199 2.546921,0.971582 3.190887,2.117657 4.916303,2.221685 l 2.557395,-0.512247 c -2.362984,-3.452882 -5.656332,-6.916169 -10.189572,-7.811167 -0.90677,-0.151723 -1.842278,-0.159766 -2.750962,-0.01616 z"
     fill="param(fill) #000" />
</svg>
