<?xml version="1.0" encoding="UTF-8" standalone="no"?>
<svg
   xmlns:dc="http://purl.org/dc/elements/1.1/"
   xmlns:cc="http://creativecommons.org/ns#"
   xmlns:rdf="http://www.w3.org/1999/02/22-rdf-syntax-ns#"
   xmlns:svg="http://www.w3.org/2000/svg"
   xmlns="http://www.w3.org/2000/svg"
   viewBox="0 0 56.308655 56.25"
   height="56.25"
   width="56.308655"
   version="1.1"
   id="svg5988">
  <metadata
     id="metadata5994">
    <rdf:RDF>
      <cc:Work
         rdf:about="">
        <dc:format>image/svg+xml</dc:format>
        <dc:type
           rdf:resource="http://purl.org/dc/dcmitype/StillImage" />
        <dc:title></dc:title>
      </cc:Work>
    </rdf:RDF>
  </metadata>
  <defs
     id="defs5992" />
  <path
     id="path9714"
     d="m 24.882812,3.9648438 c -3.997402,-0.133712 -7.5955,2.5191448 -9.334509,6.0041293 -2.781083,5.4028299 -3.350837,11.6514699 -3.265746,17.6379429 0.01028,0.823709 -1.457979,0.299961 -2.119223,0.511681 -0.3998732,-0.07611 -1.015761,0.04982 -0.8437555,0.595679 0.088327,0.853373 -0.090561,1.779171 0.1335547,2.596857 0.8665898,0.3245 1.8881668,0.25131 2.8066328,0.44082 1.010537,5.572431 2.448306,11.259818 5.614979,16.033454 1.592776,2.467221 4.41032,4.455529 7.471696,3.879544 4.671924,-0.290164 8.602615,-3.750343 10.279787,-7.997665 1.661199,-3.881717 2.180372,-8.137669 2.2976,-12.325489 2.205355,-0.217791 6.626959,-0.610869 6.626959,-0.610869 -2.429078,-1.033196 -4.464561,-2.073724 -6.609381,-2.803194 -0.09487,-5.693643 0.47201,-11.553532 -1.246094,-17.072265 C 35.667874,7.3632382 32.494096,4.8353213 28.93623,4.3080742 27.602034,4.0504307 26.239971,3.9619241 24.882812,3.9648438 Z m -0.722656,2.5996093 c 3.68391,-0.2797442 7.234521,1.9462007 8.77653,5.2664399 2.489501,5.051222 2.633637,10.849224 2.432455,16.372232 l -20.947266,-0.07227 c 0.146003,-5.792886 0.640535,-11.774408 3.060623,-17.11503 1.017211,-2.2780689 3.03761,-4.3894839 5.693519,-4.3882449 0.327157,-0.032693 0.65546,-0.054242 0.984139,-0.063127 z m 11.06836,24.6582029 c 0.136105,4.936237 -2.020491,9.770484 -5.138649,13.515338 -1.746423,2.033221 -4.614187,4.104291 -7.385116,2.854192 -2.515915,-1.438479 -4.120171,-4.044298 -5.563199,-6.480859 -1.490049,-2.794261 -2.471045,-5.9142 -2.538036,-9.095702 z"
     fill="param(fill) #000" />
</svg>
