<?xml version="1.0" encoding="UTF-8" standalone="no"?>
<svg
   xmlns:dc="http://purl.org/dc/elements/1.1/"
   xmlns:cc="http://creativecommons.org/ns#"
   xmlns:rdf="http://www.w3.org/1999/02/22-rdf-syntax-ns#"
   xmlns:svg="http://www.w3.org/2000/svg"
   xmlns="http://www.w3.org/2000/svg"
   viewBox="0 0 56.308655 56.25"
   height="56.25"
   width="56.308655"
   version="1.1"
   id="svg6406">
  <metadata
     id="metadata6412">
    <rdf:RDF>
      <cc:Work
         rdf:about="">
        <dc:format>image/svg+xml</dc:format>
        <dc:type
           rdf:resource="http://purl.org/dc/dcmitype/StillImage" />
        <dc:title></dc:title>
      </cc:Work>
    </rdf:RDF>
  </metadata>
  <defs
     id="defs6410" />
  <path
     transform="matrix(0.85532747,0,0,0.83442799,3.8930451,8.6331565)"
     d="m 16.322266,7.5566406 0.02539,0.00195 c 0.06517,0.00451 -0.104812,0.00698 -0.08008,0.00195 -0.286424,0.027257 -0.530306,0.2962815 -0.527344,0.5839843 l 0,6.4960938 0,5.919922 -6.4335934,0 -7.0136718,0 -0.00195,0 c -0.3056118,-6.46e-4 -0.5838095,0.278264 -0.5820312,0.583984 l 0,5.84961 0,5.849609 c -6.45e-4,0.304994 0.2770373,0.582676 0.5820312,0.582031 l 25.9589844,0 25.957031,0 c 0.306339,0.0018 0.585767,-0.277645 0.583985,-0.583984 l 0,-5.847656 0,-5.84961 c 0.0018,-0.306338 -0.277646,-0.585766 -0.583985,-0.583984 l -7.013672,0 -6.433593,0 0,-5.919922 0,-6.5 0,-0.00195 c 6.45e-4,-0.304994 -0.277038,-0.5826762 -0.582032,-0.5820313 l -11.927734,0 -11.927734,0 z m 1.986328,2.4648434 9.941406,0 9.941406,0 0,5.269532 0,5.269531 -9.941406,0 -9.941406,0 0,-5.269531 0,-5.269532 z m -14.0332034,13.001954 11.3457034,0 11.345703,0 0,3.970703 0,3.96875 -11.345703,0 -11.3457034,0 0,-3.96875 0,-3.970703 z m 25.2578124,0 11.345703,0 11.345703,0 0,3.970703 0,3.96875 -11.345703,0 -11.345703,0 0,-3.96875 0,-3.970703 z"
     id="path9736"
     fill="param(fill) #000" />
</svg>
