<?xml version="1.0" encoding="UTF-8" standalone="no"?>
<svg
   xmlns:dc="http://purl.org/dc/elements/1.1/"
   xmlns:cc="http://creativecommons.org/ns#"
   xmlns:rdf="http://www.w3.org/1999/02/22-rdf-syntax-ns#"
   xmlns:svg="http://www.w3.org/2000/svg"
   xmlns="http://www.w3.org/2000/svg"
   viewBox="0 0 56.308655 56.25"
   height="56.25"
   width="56.308655"
   version="1.1"
   id="svg4595">
  <metadata
     id="metadata4601">
    <rdf:RDF>
      <cc:Work
         rdf:about="">
        <dc:format>image/svg+xml</dc:format>
        <dc:type
           rdf:resource="http://purl.org/dc/dcmitype/StillImage" />
        <dc:title></dc:title>
      </cc:Work>
    </rdf:RDF>
  </metadata>
  <defs
     id="defs4599" />
  <path
     d="m 15.521484,20.808594 -13.0429684,0.08008 a 0.56745743,0.56745743 0 0 0 -0.5625,0.595703 l 0.058594,1.203125 a 0.56745743,0.56745743 0 0 0 0.5625,0.539062 l 10.3124996,0.08203 0.148438,12.353515 a 0.56745743,0.56745743 0 0 0 0.566406,0.5625 l 27.472656,0 a 0.56745743,0.56745743 0 0 0 0.56836,-0.570312 c -0.0152,-3.977174 0.01505,-7.955093 0.07031,-11.933594 l 10.041016,0.08594 A 0.56745743,0.56745743 0 0 0 52.287109,23.25 l 0.03125,-1.791016 a 0.56745743,0.56745743 0 0 0 -0.5625,-0.578125 l -12.677734,-0.07227 a 0.56745743,0.56745743 0 0 0 -0.572266,0.568359 l 0,11.671875 -22.412109,0 0,-11.671875 a 0.56745743,0.56745743 0 0 0 -0.572266,-0.568359 z"
     id="path9762"
     fill="param(fill) #000" />
</svg>
