<?xml version="1.0" encoding="UTF-8" standalone="no"?>
<svg
   xmlns:dc="http://purl.org/dc/elements/1.1/"
   xmlns:cc="http://creativecommons.org/ns#"
   xmlns:rdf="http://www.w3.org/1999/02/22-rdf-syntax-ns#"
   xmlns:svg="http://www.w3.org/2000/svg"
   xmlns="http://www.w3.org/2000/svg"
   viewBox="0 0 56.308655 56.25"
   height="56.25"
   width="56.308655"
   version="1.1"
   id="svg4712">
  <metadata
     id="metadata4718">
    <rdf:RDF>
      <cc:Work
         rdf:about="">
        <dc:format>image/svg+xml</dc:format>
        <dc:type
           rdf:resource="http://purl.org/dc/dcmitype/StillImage" />
        <dc:title></dc:title>
      </cc:Work>
    </rdf:RDF>
  </metadata>
  <defs
     id="defs4716" />
  <path
     id="path9804"
     d="m 24.136719,1.7910156 c -1.064618,0.044227 -0.715996,1.3654549 -0.790825,2.0666812 L 23.117188,14.464844 c -3.698985,-0.146017 -7.402523,-0.379968 -11.098689,-0.471414 -0.891399,0.355346 -0.523174,1.570296 -0.775877,2.312522 -0.09998,0.671323 -0.485965,1.932352 0.569878,2.000689 l 11.40625,-0.04687 c 0.01827,11.301464 -0.03038,22.612908 -0.439399,33.903294 0.357829,0.945781 1.57463,0.390172 2.323595,0.503873 C 34,53.25 47.324042,52.269439 47.324042,52.269439 c 0,0 -15.324042,-1.019439 -20.396308,-3.074122 l 0,-30.734374 c 3.792311,0.07276 7.591082,0.23412 11.379379,0.251726 0.927279,-0.371451 0.378904,-1.570629 0.495984,-2.317695 -0.06516,-0.683128 0.249995,-1.953366 -0.779659,-2.002391 L 26.958984,14.662114 C 27.098176,10.587582 27.324899,6.5080066 27.409613,2.4366072 27.064479,1.5271008 25.870441,1.9943405 25.136002,1.8301492 Z"
     fill="param(fill) #000" />
</svg>
