<?xml version="1.0" encoding="UTF-8" standalone="no"?>
<svg
   xmlns:dc="http://purl.org/dc/elements/1.1/"
   xmlns:cc="http://creativecommons.org/ns#"
   xmlns:rdf="http://www.w3.org/1999/02/22-rdf-syntax-ns#"
   xmlns:svg="http://www.w3.org/2000/svg"
   xmlns="http://www.w3.org/2000/svg"
   viewBox="0 0 56.308655 56.25"
   height="56.25"
   width="56.308655"
   version="1.1"
   id="svg4754">
  <metadata
     id="metadata4760">
    <rdf:RDF>
      <cc:Work
         rdf:about="">
        <dc:format>image/svg+xml</dc:format>
        <dc:type
           rdf:resource="http://purl.org/dc/dcmitype/StillImage" />
        <dc:title></dc:title>
      </cc:Work>
    </rdf:RDF>
  </metadata>
  <defs
     id="defs4758" />
  <path
     id="path4766"
     d="m 16.165185,31.36202 -0.252087,-7.858239 -14.8371108,-0.103759 2.1348675,-3.37743 15.7475993,0.914381 1e-6,7.805554 c 0.733802,0.197723 4.459728,0.574477 5.145187,0.829305 0.685458,0.254829 0.09506,3.043315 0.767197,3.305747 0.672136,0.262432 6.913889,0.304325 6.913889,0.304325 l 0.225142,-2.814344 5.533746,-0.82613 0.588204,-8.548651 16.537999,-0.422827 -3.259108,1.609959 -10.48562,1.78091 -0.672234,7.560779 c -1.591813,0.166557 -5.275894,0.735191 -5.275894,0.735191 l -0.05627,2.95557 c 0,0 -3.874387,0.853794 -6.880861,0.936792 -0.796327,-0.01555 -5.611513,-0.183701 -5.611513,-0.183701 0,0 0.347788,-3.166149 -0.710268,-3.376625 C 20.659991,32.37835 16.165187,31.36202 16.165185,31.36202 Z"
     fill="param(fill) #000" />
</svg>
