<?xml version="1.0" encoding="UTF-8" standalone="no"?>
<svg
   xmlns:dc="http://purl.org/dc/elements/1.1/"
   xmlns:cc="http://creativecommons.org/ns#"
   xmlns:rdf="http://www.w3.org/1999/02/22-rdf-syntax-ns#"
   xmlns:svg="http://www.w3.org/2000/svg"
   xmlns="http://www.w3.org/2000/svg"
   viewBox="0 0 56.308655 56.25"
   height="56.25"
   width="56.308655"
   version="1.1"
   id="svg4187">
  <metadata
     id="metadata4193">
    <rdf:RDF>
      <cc:Work
         rdf:about="">
        <dc:format>image/svg+xml</dc:format>
        <dc:type
           rdf:resource="http://purl.org/dc/dcmitype/StillImage" />
        <dc:title></dc:title>
      </cc:Work>
    </rdf:RDF>
  </metadata>
  <defs
     id="defs4191" />
  <path
     id="path4207"
     d="M 28.010531,52.100104 16.540294,45.463858 c 5.284619,1.242083 11.910235,-0.272868 14.954896,-3.141947 1.938564,-2.399224 1.425829,-3.925584 -0.977931,-5.426055 -3.555897,-2.69469 -8.136635,-4.636142 -10.080033,-8.850971 -3.379718,-5.973874 -3.78214,-13.969689 0.502127,-19.6267141 3.955207,-4.5913181 11.614437,-6.2972588 16.84089,-2.7470424 4.625466,3.4625349 4.927879,10.1973265 2.346437,15.0290125 -1.222949,2.288996 -6.907499,4.807893 -10.545363,5.116921 -3.637865,0.309029 -5.563343,1.04709 -3.263143,3.190763 2.094542,2.157453 5.003445,3.335431 7.429019,5.098726 2.79056,1.930033 4.901601,2.160068 5.095065,6.358185 0.193465,4.198117 -4.942367,6.934078 -10.831727,11.635368 z M 38.849259,15.0959 c -0.08754,-4.518116 -4.591702,-9.034024 -9.423467,-7.955375 -4.696044,0.9971092 -8.389458,6.195212 -6.636175,10.754401 2.306323,5.158113 10.326781,6.176231 14.213696,2.156446 1.299108,-1.294634 2.138812,-3.128559 1.845946,-4.955472 z"
     style="fill:#0000ff;fill-opacity:1" />
</svg>
