<?xml version="1.0" encoding="UTF-8" standalone="no"?>
<svg
   xmlns:dc="http://purl.org/dc/elements/1.1/"
   xmlns:cc="http://creativecommons.org/ns#"
   xmlns:rdf="http://www.w3.org/1999/02/22-rdf-syntax-ns#"
   xmlns:svg="http://www.w3.org/2000/svg"
   xmlns="http://www.w3.org/2000/svg"
   viewBox="0 0 56.308655 56.25"
   height="56.25"
   width="56.308655"
   version="1.1"
   id="svg4746">
  <metadata
     id="metadata4752">
    <rdf:RDF>
      <cc:Work
         rdf:about="">
        <dc:format>image/svg+xml</dc:format>
        <dc:type
           rdf:resource="http://purl.org/dc/dcmitype/StillImage" />
        <dc:title></dc:title>
      </cc:Work>
    </rdf:RDF>
  </metadata>
  <defs
     id="defs4750" />
  <path
     transform="translate(0.22990463,-6.8971389)"
     d="M 26.255859,14.982422 A 0.14094509,0.14094509 0 0 0 26.203125,15 l -2.875,1.578125 -2.873047,1.578125 a 0.14094509,0.14094509 0 0 0 -0.07227,0.123047 l 0,4.095703 0,4.050781 -2.34375,3.25586 c -0.657712,0.914154 -1.252043,1.959463 -1.685546,2.914062 -0.433504,0.9546 -0.708985,1.808494 -0.708985,2.384766 l 0,1.78125 -2.257812,0 -2.398438,0 a 0.14094509,0.14094509 0 0 0 -0.138672,0.117187 l -0.730468,4.40625 -0.7187504,4.332032 -2.4335937,1.185546 -2.4960938,1.214844 a 0.14094509,0.14094509 0 0 0 0.056641,0.267578 l 2.09375,0.0918 1.9355468,0.08203 -0.6445312,3.771485 -0.6738282,3.925781 a 0.14094509,0.14094509 0 0 0 0.2695313,0.07422 l 1.8339844,-4.804688 1.8359371,-4.804687 a 0.14094509,0.14094509 0 0 0 0.0098,-0.05078 l 0,-3.361328 0,-3.142578 1.556641,0.720703 1.626953,0.75586 -1.105469,2.492187 c -0.534815,1.204624 -0.877635,2.121112 -1.054687,2.753906 -0.08853,0.316398 -0.137097,0.560116 -0.144532,0.744141 -0.0037,0.09201 0.0021,0.169645 0.02734,0.242188 0.02523,0.07254 0.08865,0.15025 0.175781,0.169921 0.08713,0.01967 0.163115,-0.0095 0.230469,-0.04883 0.06735,-0.03933 0.132257,-0.09532 0.205078,-0.167968 0.145643,-0.145288 0.316424,-0.360179 0.515625,-0.650391 0.398403,-0.580425 0.908189,-1.459044 1.509766,-2.648437 l 2.365234,-4.675782 a 0.14094509,0.14094509 0 0 0 0.01563,-0.06445 l 0,-3.451172 0,-3.380859 1,-0.744141 L 18.935547,31.5 18.634766,42.669922 c -0.112068,4.181026 -0.127752,7.070212 -0.06836,8.753906 0.0297,0.841847 0.07413,1.372737 0.146485,1.648438 0.01809,0.06893 0.03337,0.122648 0.07227,0.175781 0.01945,0.02657 0.04928,0.05593 0.09766,0.07227 0.04838,0.01634 0.10816,0.0059 0.144532,-0.01562 0.07274,-0.04297 0.09278,-0.09412 0.11914,-0.152344 0.02636,-0.05823 0.04993,-0.127792 0.07422,-0.214844 0.194326,-0.696416 0.425673,-2.479063 0.691406,-5.322266 0.265733,-2.843202 0.560573,-6.734187 0.861329,-11.591796 l 1.033203,-16.699219 1.449218,-1.109375 c 0.382281,-0.292505 1.078036,-0.570892 1.875,-0.761719 0.796964,-0.190827 1.697104,-0.298521 2.496094,-0.277344 l 2.416016,0.06445 -1.884766,0.97461 -2.369141,1.228515 a 0.14094509,0.14094509 0 0 0 0.05273,0.265625 l 2.960937,0.242188 2.34961,0.191406 -2.388672,0.921875 -2.960938,1.144531 a 0.14094509,0.14094509 0 0 0 0.03906,0.271485 l 2.960937,0.242187 2.47461,0.203125 -1.933594,1.001953 -2.369141,1.226563 a 0.14094509,0.14094509 0 0 0 0.05273,0.265625 l 2.36914,0.191406 1.896485,0.152344 -2.544922,1.378906 L 25.787109,28.75 a 0.14094509,0.14094509 0 0 0 0.04297,0.261719 l 3.257813,0.539062 3.140625,0.521485 0,1.214843 0,1.201172 -2.535157,0.185547 -2.664062,0.19336 a 0.14094509,0.14094509 0 0 0 -0.02344,0.277343 l 2.560547,0.603516 2.464844,0.580078 1.193359,10.169922 1.203125,10.269531 a 0.14111242,0.14111242 0 0 0 0.28125,-0.02344 l -0.630859,-11.779297 -0.623047,-11.632813 1.238281,0 c 0.33716,0 0.957715,0.171745 1.644532,0.455078 0.686816,0.283334 1.449438,0.675949 2.115234,1.105469 l 2.283203,1.470703 -1.482422,1.132813 -1.640625,1.251953 A 0.14094509,0.14094509 0 0 0 37.697266,37 l 1.945312,0.02148 1.845703,0.02148 0.6875,2.162109 c 0.384192,1.206885 0.712891,3.927102 0.712891,5.986328 l 0,3.248047 L 41.3125,45.728516 C 40.286886,43.963407 38.293848,41.79306 36.826172,40.857422 l -2.603516,-1.660156 a 0.14094509,0.14094509 0 0 0 -0.18164,0.21289 l 3.68164,4.175782 c 1.006982,1.141843 2.007683,2.498664 2.806641,3.761718 0.798957,1.263054 1.395478,2.437959 1.591797,3.183594 l 0.74414,2.828125 a 0.14094509,0.14094509 0 0 0 0.136719,0.105469 l 3.064453,0 3.064453,0 a 0.14094509,0.14094509 0 0 0 0.138672,-0.164063 l -0.630859,-3.796875 -0.613281,-3.693359 1.730468,-0.800781 1.753907,-0.810547 1.904296,1.341797 1.646485,1.158203 -2.564453,0.18164 -2.960938,0.208985 a 0.14094509,0.14094509 0 0 0 -0.0332,0.27539 l 2.068359,0.650391 1.917969,0.605469 -1.158203,2.607422 c -0.338876,0.763291 -0.578313,1.455427 -0.693359,1.96875 -0.05752,0.256661 -0.08633,0.466878 -0.07422,0.632812 0.0061,0.08297 0.02023,0.156593 0.0625,0.22461 0.04227,0.06802 0.131493,0.123046 0.216797,0.123046 0.108807,0 0.177529,-0.05477 0.251953,-0.121093 0.07442,-0.06633 0.152843,-0.155921 0.238281,-0.267579 0.170877,-0.223315 0.370755,-0.537305 0.591797,-0.923828 0.442085,-0.773045 0.96412,-1.83472 1.464844,-3.001953 l 1.814453,-4.228515 a 0.14094509,0.14094509 0 0 0 -0.05273,-0.173828 l -2.402344,-1.548829 -2.400391,-1.548828 a 0.14094509,0.14094509 0 0 0 -0.160156,0.0059 l -1.125,0.839843 -1.041016,0.775391 -2.910156,-2.298828 -2.941406,-2.324219 0,-2.314453 0,-2.384766 a 0.14094509,0.14094509 0 0 0 -0.05859,-0.115234 l -3.439453,-2.449219 c -0.954194,-0.679461 -2.033041,-1.294295 -3.007813,-1.742187 -0.974771,-0.447892 -1.834709,-0.732422 -2.404296,-0.732422 l -1.75,0 0,-6.257813 0,-6.398437 a 0.14094509,0.14094509 0 0 0 -0.09961,-0.134766 L 29.361328,15.910156 26.3125,14.988281 a 0.14094509,0.14094509 0 0 0 -0.05664,-0.0059 z M 27.5625,36.048828 a 0.14094509,0.14094509 0 0 0 -0.132812,0.169922 l 0.767578,3.570312 c 0.426064,1.978315 1.256994,4.320889 1.888672,5.275391 l 1.021484,1.546875 -1.136719,0.847656 -1.246094,0.927735 a 0.14094509,0.14094509 0 0 0 -0.04492,0.169922 l 1.230468,2.769531 c 0.340868,0.767774 0.717047,1.466152 1.052735,1.976562 0.167843,0.255206 0.32436,0.462951 0.466797,0.613282 0.142436,0.15033 0.25851,0.261718 0.429687,0.261718 0.08349,0 0.170111,-0.05103 0.212891,-0.117187 0.04278,-0.06615 0.05763,-0.138435 0.06445,-0.21875 0.01365,-0.160631 -0.01044,-0.36297 -0.06445,-0.609375 -0.108032,-0.492811 -0.33722,-1.156888 -0.66211,-1.888672 l -1.136718,-2.5625 0.882812,-1.224609 0.929688,-1.291016 a 0.14094509,0.14094509 0 0 0 0.01367,-0.138672 L 29.898438,41.130859 27.697266,36.132812 A 0.14094509,0.14094509 0 0 0 27.5625,36.048828 Z m -12.853516,2.160156 0.646485,0.777344 0.509765,0.617188 -1.947265,-0.09766 -1.720703,-0.08594 1.05664,-0.509766 1.455078,-0.701172 z m -9.8457028,3.955078 a 0.14094509,0.14094509 0 0 0 -0.097656,0.05273 L 3.1914062,44.15625 1.6171875,46.095703 a 0.14094509,0.14094509 0 0 0 -0.029297,0.06641 L 0.90820312,50.447266 0.2265625,54.730469 A 0.14094509,0.14094509 0 0 0 0.5,54.794922 l 1.6289062,-4.998047 1.5917969,-4.886719 2.7089844,0.326172 2.8222656,0.337891 a 0.14094509,0.14094509 0 0 0 0.099609,-0.25586 L 7.1542969,43.753906 4.9570312,42.189453 a 0.14094509,0.14094509 0 0 0 -0.09375,-0.02539 z m 40.5527348,0.419922 c 0.06083,0.01856 0.163457,0.104879 0.27539,0.298828 0.111933,0.19395 0.23362,0.485829 0.359375,0.873047 0.251511,0.774438 0.525066,1.935837 0.841797,3.527344 l 0.748047,3.757813 -2.242187,0 -2.242188,0 0.748047,-3.757813 c 0.214339,-1.077011 0.456071,-2.123741 0.673828,-2.939453 0.108879,-0.407856 0.211688,-0.757299 0.300781,-1.023438 0.08909,-0.266138 0.175666,-0.457331 0.208985,-0.503906 0.07636,-0.106744 0.14798,-0.175948 0.203125,-0.208984 0.05514,-0.03304 0.08486,-0.03569 0.125,-0.02344 z"
     id="path5334"
     style="fill:#804000;fill-opacity:1" />
</svg>
