<?xml version="1.0" encoding="UTF-8" standalone="no"?>
<svg
   xmlns:dc="http://purl.org/dc/elements/1.1/"
   xmlns:cc="http://creativecommons.org/ns#"
   xmlns:rdf="http://www.w3.org/1999/02/22-rdf-syntax-ns#"
   xmlns:svg="http://www.w3.org/2000/svg"
   xmlns="http://www.w3.org/2000/svg"
   viewBox="0 0 56.308655 56.25"
   height="56.25"
   width="56.308655"
   version="1.1"
   id="svg4475">
  <metadata
     id="metadata4481">
    <rdf:RDF>
      <cc:Work
         rdf:about="">
        <dc:format>image/svg+xml</dc:format>
        <dc:type
           rdf:resource="http://purl.org/dc/dcmitype/StillImage" />
        <dc:title></dc:title>
      </cc:Work>
    </rdf:RDF>
  </metadata>
  <defs
     id="defs4479" />
  <path
     d="m 4.2636719,19.179688 a 1.0818856,1.0818856 0 0 0 -1.0898438,1.162109 l 0.140625,1.875 a 1.0818856,1.0818856 0 0 0 1.0820313,1.001953 l 16.3613276,-0.06836 a 1.0818856,1.0818856 0 0 0 1.06836,-0.945313 l 0.208984,-1.634766 a 1.0818856,1.0818856 0 0 0 -1.060547,-1.21875 L 4.2636719,19.179688 Z m 28.6855471,0.08203 a 1.0818856,1.0818856 0 0 0 -1.082031,1.11914 l 0.05469,1.628907 a 1.0818856,1.0818856 0 0 0 1.085937,1.044922 l 16.449219,-0.07031 a 1.0818856,1.0818856 0 0 0 1.06836,-0.9375 l 0.208984,-1.550781 a 1.0818856,1.0818856 0 0 0 -1.072266,-1.226563 l -16.71289,-0.0078 z m -14.337891,8.933593 a 1.0818856,1.0818856 0 0 0 -1.082031,0.970704 L 17.351562,30.875 a 1.0818856,1.0818856 0 0 0 1.076172,1.193359 l 17.6875,0 a 1.0818856,1.0818856 0 0 0 1.056641,-1.310547 l -0.351563,-1.626953 a 1.0818856,1.0818856 0 0 0 -1.050781,-0.853515 l -17.158203,-0.08203 z"
     id="path10749"
     style="fill:#0401ff;fill-opacity:1" />
</svg>
