<?xml version="1.0" encoding="UTF-8" standalone="no"?>
<svg
   xmlns:dc="http://purl.org/dc/elements/1.1/"
   xmlns:cc="http://creativecommons.org/ns#"
   xmlns:rdf="http://www.w3.org/1999/02/22-rdf-syntax-ns#"
   xmlns:svg="http://www.w3.org/2000/svg"
   xmlns="http://www.w3.org/2000/svg"
   viewBox="0 0 56.308655 56.25"
   height="56.25"
   width="56.308655"
   version="1.1"
   id="svg4745">
  <metadata
     id="metadata4751">
    <rdf:RDF>
      <cc:Work
         rdf:about="">
        <dc:format>image/svg+xml</dc:format>
        <dc:type
           rdf:resource="http://purl.org/dc/dcmitype/StillImage" />
        <dc:title></dc:title>
      </cc:Work>
    </rdf:RDF>
  </metadata>
  <defs
     id="defs4749" />
  <path
     id="path4755"
     d="M 11.658318,42.957696 C -0.56913183,29.797281 0.40712813,21.276056 15.464447,9.736214 28.226186,-0.04430378 28.226186,-0.04430378 40.619801,13.878881 53.013413,27.802075 53.013413,27.802075 41.495004,40.19935 27.628546,55.123832 23.331102,55.521126 11.658318,42.957696 Z M 38.927587,37.705067 C 48.285643,27.632979 48.285643,27.632979 38.384415,16.289436 29.112594,5.6669856 27.806092,5.4233906 17.831848,12.45742 5.4441094,21.193496 4.3509031,29.584755 14.217061,40.203713 c 9.281444,9.989629 13.504296,9.562633 24.710526,-2.498646 z M 20.613921,26.089574 c 0,-3.976063 3.022516,-7.229198 6.716702,-7.229198 3.694185,0 6.716704,3.253135 6.716704,7.229198 0,3.976053 -3.022519,7.229195 -6.716704,7.229195 -3.694186,0 -6.716702,-3.253142 -6.716702,-7.229195 z"
     fill="param(fill) #000" />
</svg>
