<?xml version="1.0" encoding="UTF-8" standalone="no"?>
<svg
   xmlns:dc="http://purl.org/dc/elements/1.1/"
   xmlns:cc="http://creativecommons.org/ns#"
   xmlns:rdf="http://www.w3.org/1999/02/22-rdf-syntax-ns#"
   xmlns:svg="http://www.w3.org/2000/svg"
   xmlns="http://www.w3.org/2000/svg"
   viewBox="0 0 56.308655 56.25"
   height="56.25"
   width="56.308655"
   version="1.1"
   id="svg4562">
  <metadata
     id="metadata4568">
    <rdf:RDF>
      <cc:Work
         rdf:about="">
        <dc:format>image/svg+xml</dc:format>
        <dc:type
           rdf:resource="http://purl.org/dc/dcmitype/StillImage" />
        <dc:title></dc:title>
      </cc:Work>
    </rdf:RDF>
  </metadata>
  <defs
     id="defs4566" />
  <path
     id="path4574"
     d="M 9.4411749,26.413334 C 9.1566483,17.03825 16.58034,19.409538 3.3912289,7.6113904 L 9.1093826,3.2068223 c 8.9912914,14.3657187 7.7832714,7.7348257 19.8408254,7.7810427 9.530014,0.172485 6.078677,4.934124 17.74101,-8.1277096 L 52.73344,7.3665243 C 36.126125,19.783399 45.484212,13.02895 44.499411,26.160671 43.92502,37.026297 35.20932,35.016773 50.318326,47.642131 l -5.254385,4.204877 C 38.314168,43.636301 30.694737,39.999081 19.233667,43.493937 10.070186,45.503826 9.4527956,52.922648 9.4527956,52.922648 L 3.3305045,46.925695 C 17.14102,35.571112 9.7257037,35.788418 9.4411749,26.413334 Z M 39.174343,26.793015 C 39.153943,20.527807 36.484469,16.92301 27.150039,16.25883 17.815611,15.594655 13.372562,21.147247 13.576355,26.767792 c 0.04381,5.890457 6.520467,11.504113 12.486306,12.94543 9.107244,0.64874 13.132002,-6.655 13.111682,-12.920207 z m -17.423367,1.167514 c -0.401572,-3.207905 3.382862,-5.825536 6.113173,-5.432886 2.811178,0.803216 4.221035,1.993284 4.590825,4.92801 0.369791,2.934726 -1.667823,5.189209 -5.199013,5.279444 -3.531187,0.09025 -5.103415,-1.566663 -5.504985,-4.774568 z"
     style="fill:#bf0000;fill-opacity:1" />
</svg>
