<?xml version="1.0" encoding="UTF-8" standalone="no"?>
<svg
   xmlns:dc="http://purl.org/dc/elements/1.1/"
   xmlns:cc="http://creativecommons.org/ns#"
   xmlns:rdf="http://www.w3.org/1999/02/22-rdf-syntax-ns#"
   xmlns:svg="http://www.w3.org/2000/svg"
   xmlns="http://www.w3.org/2000/svg"
   viewBox="0 0 56.308655 56.25"
   height="56.25"
   width="56.308655"
   version="1.1"
   id="svg5215">
  <metadata
     id="metadata5221">
    <rdf:RDF>
      <cc:Work
         rdf:about="">
        <dc:format>image/svg+xml</dc:format>
        <dc:type
           rdf:resource="http://purl.org/dc/dcmitype/StillImage" />
        <dc:title></dc:title>
      </cc:Work>
    </rdf:RDF>
  </metadata>
  <defs
     id="defs5219" />
  <path
     id="path5289"
     d="m 18.73712,14.881216 c 5.300375,-0.340286 10.632499,-0.18133 15.948625,-0.18133 l 15.887489,27.992649 -44.7979684,0 z M 40.618777,27.639902 34.49077,17.241598 22.155796,17.085151 c -0.09437,1.764668 -0.01174,3.742716 1.054119,4.899419 1.333677,1.966895 3.113603,3.052071 4.702203,4.496544 l -5.562194,0.145075 -2.293976,-5.383124 -3.012167,7.806163 2.016815,4.732732 c -2.381883,0.156142 -5.071179,-0.617289 -7.147625,1.498524 -0.722977,1.155352 -1.324952,2.537125 0.130577,2.099873 l 34.703243,0.657856 z m -12.98077,4.551879 c 0.579992,-1.227065 1.334894,-1.881659 1.925785,-0.387376 l 1.363541,1.977547 -4.385768,0 z m 4.933988,0 c 0.579992,-1.227065 1.334894,-1.881659 1.925785,-0.387376 l 1.363541,1.977547 -4.385767,0 z m 4.93399,0 c 0.579992,-1.227065 1.334894,-1.881659 1.925784,-0.387376 l 1.363542,1.977547 -4.385767,0 z M 30.927333,25.03601 c 0.579992,-1.227065 1.334894,-1.881659 1.925785,-0.387376 l 1.363541,1.977547 -4.385767,0 z m -0.548221,-4.372971 c 0.145596,-2.838247 2.927695,0.484613 0.943684,1.185196 -0.470793,0.107674 -0.964782,-0.47986 -0.943684,-1.185196 z"
     fill="param(fill) #000" />
</svg>
