<?xml version="1.0" encoding="UTF-8" standalone="no"?>
<svg
   xmlns:dc="http://purl.org/dc/elements/1.1/"
   xmlns:cc="http://creativecommons.org/ns#"
   xmlns:rdf="http://www.w3.org/1999/02/22-rdf-syntax-ns#"
   xmlns:svg="http://www.w3.org/2000/svg"
   xmlns="http://www.w3.org/2000/svg"
   viewBox="0 0 56.308655 56.25"
   height="56.25"
   width="56.308655"
   version="1.1"
   id="svg4415">
  <metadata
     id="metadata4421">
    <rdf:RDF>
      <cc:Work
         rdf:about="">
        <dc:format>image/svg+xml</dc:format>
        <dc:type
           rdf:resource="http://purl.org/dc/dcmitype/StillImage" />
        <dc:title></dc:title>
      </cc:Work>
    </rdf:RDF>
  </metadata>
  <defs
     id="defs4419" />
  <path
     d="m 36.066406,19.521484 -1.230468,6.28711 c -0.676544,3.458638 -1.230469,6.850644 -1.230469,7.537109 0,2.079972 -0.886922,1.452193 -4.695313,-3.320312 l -2.902344,-3.636719 -0.371093,1.716797 -0.441407,2.050781 0.791016,-0.726562 0.791016,-0.726563 1.15039,1.419922 1.150391,1.419922 -0.435547,1.685547 -0.435547,1.6875 1.050781,-1.296875 1.050782,-1.294922 1.410156,2.316406 1.410156,2.316406 0.523438,-1.466797 c 0.288273,-0.806484 0.978689,-4.155363 1.533203,-7.443359 l 1.007812,-5.978516 0.576172,0 c 0.316872,0 0.798458,0.53378 1.070313,1.1875 l 0.49414,1.189453 -1.023437,1.94336 -1.023438,1.941406 1.341797,-1.5625 1.339844,-1.5625 1.166016,1.439453 1.167968,1.4375 -0.451172,2.402344 -0.451171,2.400391 0.78125,-1.6875 0.779297,-1.6875 2.253906,3.207031 2.251953,3.208984 1.373047,-3.451172 1.371094,-3.451171 0.591796,0.544921 0.591797,0.542969 -0.421875,1.957031 -0.421875,1.955079 0.753907,-1.56836 0.751953,-1.568359 0.888671,0.816406 0.888672,0.816406 -0.957031,1.890625 -0.958984,1.890625 1.039062,-1.36914 1.039063,-1.371094 1.605468,1.1875 1.607422,1.1875 -2.298828,-2.964844 c -1.264232,-1.629781 -2.882991,-3.469652 -3.595703,-4.089844 l -1.294922,-1.128906 -1.361328,3.427735 -1.363281,3.427734 -5.115234,-7.542969 -5.113282,-7.542969 z m -10.058594,6.867188 0.07227,-0.335938 -0.148437,0.242188 0.07617,0.09375 z m -0.07617,-0.09375 -0.667969,-0.837891 -2.46875,4.566407 -2.46875,4.566406 -3.214844,-2.800782 -2.464844,-2.148437 -0.478515,1.982422 -0.519531,2.154297 1.046874,-1.291016 1.044922,-1.289062 0.451172,0.669922 0.451172,0.671874 -0.402344,1.88086 -0.402343,1.880859 0.748047,-1.554687 0.746093,-1.556641 1.433594,1.242188 1.431641,1.240234 2.941406,-4.808594 2.792969,-4.568359 z m -11.285157,3.345703 0.04102,-0.171875 -0.0957,0.126953 0.05469,0.04492 z m -0.05469,-0.04492 -0.695313,-0.607422 -1.74414,2.757813 -1.742188,2.757812 -1.5585935,-3.085937 C 7.9944202,29.720445 7.0768686,27.947295 6.8125,27.478516 L 6.3300781,26.626953 3.3027344,31.462891 0.27539062,36.298828 2.9980469,32.59375 5.71875,28.888672 l 1.4921875,1.677734 1.4921875,1.677735 -1.1484375,0.05273 -1.1484375,0.05273 1.9140625,1.515625 1.9160155,1.515625 2.22461,-2.955078 2.130859,-2.830078 z"
     id="path10728"
     style="fill:#804000;fill-opacity:1" />
</svg>
