<?xml version="1.0" encoding="UTF-8" standalone="no"?>
<svg
   xmlns:dc="http://purl.org/dc/elements/1.1/"
   xmlns:cc="http://creativecommons.org/ns#"
   xmlns:rdf="http://www.w3.org/1999/02/22-rdf-syntax-ns#"
   xmlns:svg="http://www.w3.org/2000/svg"
   xmlns="http://www.w3.org/2000/svg"
   viewBox="0 0 56.308655 56.25"
   height="56.25"
   width="56.308655"
   version="1.1"
   id="svg4898">
  <metadata
     id="metadata4904">
    <rdf:RDF>
      <cc:Work
         rdf:about="">
        <dc:format>image/svg+xml</dc:format>
        <dc:type
           rdf:resource="http://purl.org/dc/dcmitype/StillImage" />
        <dc:title></dc:title>
      </cc:Work>
    </rdf:RDF>
  </metadata>
  <defs
     id="defs4902" />
  <path
     id="path4553"
     d="M 16.923038,6.2406901 C 9.0450535,11.417999 7.3026424,14.804641 4.6581699,20.699803 1.6358677,28.696318 4.9312445,36.983681 9.8933946,42.381511 13.098639,45.938071 14.229218,48.727044 20.863977,51.588357 27.498736,54.44967 36.722791,53.016892 45.43795,45.231124 54.153109,37.445355 55.71673,17.907194 45.865361,9.8230719 36.013993,1.7389493 24.801022,1.0633821 16.923038,6.2406901 Z m 5.379976,-0.8058937 5.153717,0 c 0.38364,1.1567104 0.459677,2.4710206 1.019416,3.538861 0.648913,0.5456438 1.302085,-0.3550368 1.107038,-1.0220914 0.05452,-0.8389076 0.108835,-1.6778293 0.162894,-2.5167696 l 5.198774,0 c 0.366777,1.6943693 1.654403,3.1967542 3.449306,2.5022547 1.718404,0.3814905 3.062555,1.6124405 4.530158,2.5277719 -0.347614,1.505811 -0.940079,2.984212 -1.14823,4.506038 0.176671,0.770751 1.215019,0.571717 1.397198,-0.104028 0.503518,-0.713463 1.007031,-1.426929 1.510419,-2.140487 1.19286,1.57 2.859704,3.007425 3.033869,5.11599 -0.898319,2.034396 1.677938,2.560337 2.424521,3.470292 l 0,5.004928 c -1.127027,0.394814 -2.408278,0.470225 -3.44903,1.045067 -0.531131,0.666632 0.345592,1.337693 0.99491,1.137241 0.818024,0.05606 1.636062,0.111869 2.45412,0.16739 l 0,5.334207 c -1.870417,0.360963 -2.917819,2.0552 -2.56166,3.947167 -0.600995,1.93953 -2.046807,3.395757 -3.203551,4.993144 -0.93201,-1.090142 -1.710317,-2.358667 -2.731147,-3.346671 -0.763324,-0.320557 -1.186985,0.775205 -0.652748,1.288724 0.588298,1.249731 1.176958,2.499281 1.766117,3.748582 -1.511099,1.219815 -3.022297,2.439504 -4.533639,3.659003 -0.583285,-0.74722 -0.873227,-1.815816 -1.642912,-2.366415 -0.853776,-0.231768 -0.957559,0.879101 -0.851172,1.47843 0.42876,2.31136 -2.13884,3.314037 -3.997847,3.239766 -0.988921,0.0049 -2.304149,0.371099 -2.125262,-1.098144 -0.299517,-1.131992 -0.277729,-2.403383 -0.765624,-3.455123 -0.631094,-0.594738 -1.351591,0.307681 -1.132015,0.996426 -0.07037,1.182712 -0.140701,2.365427 -0.210992,3.548145 -1.955441,-0.174828 -4.344482,0.253507 -5.790892,-1.362792 -0.539216,-0.985699 0.209513,-2.33685 -0.447879,-3.236598 -0.896364,-0.565882 -1.266822,0.827015 -1.68664,1.362412 -0.343725,1.214201 -0.978093,0.681788 -1.634953,0.01985 -1.150304,-0.928146 -2.300368,-1.856608 -3.450518,-2.78496 0.63884,-1.493591 1.501604,-2.919987 2.012076,-4.452757 -0.04467,-0.846155 -1.189132,-0.770196 -1.413788,-0.05554 -0.738653,0.937187 -1.476998,1.874632 -2.21392,2.813258 -1.514343,-1.844813 -3.0276776,-3.6905 -4.540077,-5.536996 0.7425925,-0.610922 1.800194,-0.915965 2.352826,-1.716457 C 10.91148,34.806804 9.8301554,34.700184 9.2467685,34.809491 6.9985922,35.250339 6.0154371,32.619821 6.0888736,30.708271 6.0838894,29.692411 5.7279994,28.341886 7.1578608,28.525927 8.2611713,28.218193 9.5001382,28.24049 10.525332,27.739138 11.104246,27.090931 10.225859,26.350234 9.5553762,26.576745 8.3955414,26.505135 7.2357103,26.433433 6.0758859,26.361639 6.1060505,24.253891 5.8416626,21.450753 7.9110989,20.297298 8.761888,19.975676 9.9298411,20.613745 10.615997,19.904686 11.062193,18.929707 9.6576144,18.636485 9.1348475,18.15271 c -1.1830492,-0.34818 -0.5370952,-0.9807 0.077104,-1.605674 1.0935031,-1.306157 2.1875261,-2.611855 3.2814101,-3.917677 1.23345,0.918595 2.354705,2.046505 3.650143,2.848128 0.809807,0.13488 0.984982,-1.020168 0.361761,-1.402782 C 15.71387,13.042433 14.922321,12.010287 14.13045,10.9784 15.875931,9.6432006 17.616727,7.487538 20.019347,8.0430975 21.41764,7.9533116 21.91324,6.5841993 22.303014,5.4347964 Z m 6.32092,5.0168016 c -2.05064,0.262014 -5.08406,-0.4869767 -6.318774,1.459192 1.235765,1.965158 4.328767,0.90966 6.331812,1.056052 L 32.3165,12.704309 c -3.137392,4.406423 -6.505518,8.650345 -9.434452,13.205036 -1.565279,2.667006 1.8997,3.037373 3.708614,2.801997 1.25282,-0.395349 1.040388,0.635456 0.943108,1.554182 -0.237668,4.473463 -0.524851,9.015886 0.214475,13.444224 0.387533,0.711509 1.352611,0.184554 1.307041,-0.534863 1.366564,-3.691103 1.297014,-7.713734 0.811855,-11.581224 l -0.297,-2.882319 c 1.746754,-0.092 3.793725,0.364833 5.207026,-0.92643 0.179824,-2.658061 -4.188582,-1.417802 -5.891471,-1.610625 l -3.954331,0.28214 c 3.157021,-4.441793 6.568985,-8.702842 9.481743,-13.319393 1.919867,-3.035344 -3.27502,-2.536295 -4.917109,-2.677454 -0.290657,-0.0054 -0.58136,-0.008 -0.872065,-0.008 z"
     fill="param(fill) #000" />
</svg>
