<?xml version="1.0" encoding="UTF-8" standalone="no"?>
<svg
   xmlns:dc="http://purl.org/dc/elements/1.1/"
   xmlns:cc="http://creativecommons.org/ns#"
   xmlns:rdf="http://www.w3.org/1999/02/22-rdf-syntax-ns#"
   xmlns:svg="http://www.w3.org/2000/svg"
   xmlns="http://www.w3.org/2000/svg"
   viewBox="0 0 56.308655 56.25"
   height="56.25"
   width="56.308655"
   version="1.1"
   id="svg4795">
  <metadata
     id="metadata4801">
    <rdf:RDF>
      <cc:Work
         rdf:about="">
        <dc:format>image/svg+xml</dc:format>
        <dc:type
           rdf:resource="http://purl.org/dc/dcmitype/StillImage" />
        <dc:title></dc:title>
      </cc:Work>
    </rdf:RDF>
  </metadata>
  <defs
     id="defs4799" />
  <path
     id="path4807"
     d="M 27.398486,4.5799444 C 13.317125,4.6148527 16.786811,16.512625 16.786811,16.512625 c 0,0 -12.5589362,-4.025624 -13.1513824,11.03802 -0.5924462,15.063642 11.9981694,13.261049 11.9981694,13.261049 0,0 2.136363,11.42999 13.789389,11.019078 11.653025,-0.410916 9.934766,-11.544483 9.934766,-11.544483 0,0 11.689738,1.897553 12.244902,-11.6285 0.555166,-13.526052 -11.277149,-11.163307 -11.277149,-11.163307 0,0 2.116147,-12.8494637 -12.92702,-12.9145376 z m 0.424518,3.7686047 c 3.209736,-0.072628 7.256842,0.8235441 8.394418,4.0323789 0.631803,2.40957 0.798008,7.884159 0.798008,7.884159 8.948731,0.703973 11.729338,-0.40321 10.823003,8.832614 -0.906334,9.235825 -11.702579,6.73716 -11.702579,6.73716 0,0 2.458787,11.540218 -7.844877,11.915057 -10.303665,0.374838 -9.091806,-11.316726 -9.091806,-11.316726 0,0 -4.694883,-0.12927 -7.090493,-0.440234 -3.0912864,-0.430396 -4.9234391,-3.300846 -5.103469,-6.034465 -0.3197562,-3.247601 -0.2002539,-7.34224 3.03364,-9.316222 2.355854,-1.609635 9.310398,-0.626041 9.310398,-0.626041 0,0 -1.049929,-6.511077 0.667448,-8.716113 1.59913,-2.4619695 4.989466,-2.948272 7.806309,-2.9515679 z m 3.537633,15.9574679 -6.653264,0.204915 0.2735,6.865043 7.086204,-0.02383 z"
     fill="param(fill) #000" />
</svg>
