<?xml version="1.0" encoding="UTF-8" standalone="no"?>
<svg
   xmlns:dc="http://purl.org/dc/elements/1.1/"
   xmlns:cc="http://creativecommons.org/ns#"
   xmlns:rdf="http://www.w3.org/1999/02/22-rdf-syntax-ns#"
   xmlns:svg="http://www.w3.org/2000/svg"
   xmlns="http://www.w3.org/2000/svg"
   viewBox="0 0 56.308655 56.25"
   height="56.25"
   width="56.308655"
   version="1.1"
   id="svg4263">
  <metadata
     id="metadata4269">
    <rdf:RDF>
      <cc:Work
         rdf:about="">
        <dc:format>image/svg+xml</dc:format>
        <dc:type
           rdf:resource="http://purl.org/dc/dcmitype/StillImage" />
        <dc:title></dc:title>
      </cc:Work>
    </rdf:RDF>
  </metadata>
  <defs
     id="defs4267" />
  <path
     id="path4352"
     d="m 20.625826,12.097818 c -5.480182,0.457 -11.5067927,1.524602 -15.3088378,5.536011 -3.1755484,3.123357 -4.2527142,8.432932 -1.1516386,11.925475 3.7370685,4.68811 10.0102204,6.541472 15.7087744,8.380153 2.266753,0.935649 4.714853,1.327943 7.187219,1.182114 6.694825,-0.03835 13.423447,-1.153102 19.653595,-3.423352 5.036445,-2.283155 7.999346,-8.236516 5.78773,-13.148652 C 50.934971,18.537658 46.814671,15.74924 42.357789,14.958448 35.276987,13.239005 28.002302,11.651809 20.625826,12.097818 Z m 3.21485,2.035238 c 5.479944,0.07824 11.535209,0.900751 16.27041,1.837287 4.735201,0.936537 8.690046,2.378761 10.28637,6.258625 1.571093,3.463749 0.901531,8.182859 -2.639586,10.389288 -9.062248,4.420696 -19.995029,5.396486 -29.869256,2.94626 C 13.586329,34.346188 8.8280194,32.855031 6.3449031,29.115423 4.0019042,25.986695 3.9713067,21.216982 7.2474046,18.622677 11.770525,15.044606 18.051799,14.045167 23.840676,14.133056 Z"
     style="fill:#ff0303;fill-opacity:1" />
</svg>
