<?xml version="1.0" encoding="UTF-8" standalone="no"?>
<svg
   xmlns:dc="http://purl.org/dc/elements/1.1/"
   xmlns:cc="http://creativecommons.org/ns#"
   xmlns:rdf="http://www.w3.org/1999/02/22-rdf-syntax-ns#"
   xmlns:svg="http://www.w3.org/2000/svg"
   xmlns="http://www.w3.org/2000/svg"
   viewBox="0 0 56.308655 56.25"
   height="56.25"
   width="56.308655"
   version="1.1"
   id="svg4420">
  <metadata
     id="metadata4426">
    <rdf:RDF>
      <cc:Work
         rdf:about="">
        <dc:format>image/svg+xml</dc:format>
        <dc:type
           rdf:resource="http://purl.org/dc/dcmitype/StillImage" />
        <dc:title></dc:title>
      </cc:Work>
    </rdf:RDF>
  </metadata>
  <defs
     id="defs4424" />
  <path
     id="path4432"
     d="M 6.1213456,23.082492 C 5.6373363,29.924319 5.7750082,37.423831 8.9947627,43.294227 17.028445,54.774182 34.601986,53.51087 42.1861,45.946442 46.141667,41.680554 48.992498,35.585021 49.598827,29.070144 49.166448,16.807923 40.581343,7.6350438 32.550703,5.6289704 22.033132,4.4239691 7.1600282,9.0518747 6.1213456,23.082492 Z M 27.041742,9.1817958 c 3.693465,0.1741603 7.849122,-0.4792025 11.009228,2.4298842 3.012502,3.209917 5.771811,7.004427 7.465854,11.509597 1.731828,4.445998 1.158308,9.84848 -1.05108,13.870532 -1.475612,2.768511 -4.202368,6.092616 -6.722661,7.437812 2.198902,-3.450077 3.59918,-7.31772 0.469331,-11.964792 -1.654196,-3.119265 -4.649122,-4.747995 -6.00463,-8.176468 -0.92231,-2.088965 -1.81619,-5.217594 -0.244398,-7.155219 1.588114,-1.209887 3.972513,-0.60022 5.208808,1.065761 0.647988,2.521754 2.750034,0.325672 1.648368,-1.516598 -1.184887,-2.697916 -3.934064,-3.436229 -6.214121,-3.727606 -1.56538,-0.305097 -3.773749,-0.117866 -4.253593,2.190834 -0.738077,4.429701 -0.51211,9.700536 2.195446,13.091227 1.709144,2.134095 4.183476,3.382199 5.221997,6.286858 2.797575,6.311832 -1.676912,13.061498 -5.065491,7.097847 0.108555,-1.934445 -2.083683,-4.182683 -2.350309,-1.199155 -0.312095,2.645141 3.238942,5.760035 5.598153,6.3393 -2.47898,0.507291 -9.264093,1.818827 -11.662977,0.840918 -1.135061,-1.34726 0.105529,-4.430238 0.123338,-6.429218 1.237136,-8.816227 3.630978,-17.336931 4.533781,-26.230229 0.475108,-2.750524 -2.241069,-1.95816 -2.252086,0.238287 -1.969672,6.618661 -2.91194,13.633344 -4.819134,20.28279 -0.307294,1.202408 -0.763598,2.916867 -0.738809,0.679913 -0.786707,-7.085889 -1.972903,-14.131619 -3.73117,-20.945557 -0.03122,-2.444898 -2.732672,-2.375006 -2.125479,0.198563 0.71228,10.10758 3.078794,19.883491 4.317093,29.886874 0.141255,2.841951 -3.681595,0.275384 -4.447938,-1.091016 C 9.5035066,39.075416 8.676881,31.775872 9.1222349,25.172045 9.3643184,20.090389 10.984605,14.58573 14.798995,12.085451 18.512949,9.562745 22.898293,9.2319193 27.041742,9.1817958 Z"
     fill="param(fill) #000" />
</svg>
