<?xml version="1.0" encoding="UTF-8" standalone="no"?>
<svg
   xmlns:dc="http://purl.org/dc/elements/1.1/"
   xmlns:cc="http://creativecommons.org/ns#"
   xmlns:rdf="http://www.w3.org/1999/02/22-rdf-syntax-ns#"
   xmlns:svg="http://www.w3.org/2000/svg"
   xmlns="http://www.w3.org/2000/svg"
   viewBox="0 0 56.308655 56.25"
   height="56.25"
   width="56.308655"
   version="1.1"
   id="svg4171">
  <metadata
     id="metadata4177">
    <rdf:RDF>
      <cc:Work
         rdf:about="">
        <dc:format>image/svg+xml</dc:format>
        <dc:type
           rdf:resource="http://purl.org/dc/dcmitype/StillImage" />
        <dc:title></dc:title>
      </cc:Work>
    </rdf:RDF>
  </metadata>
  <defs
     id="defs4175" />
  <path
     id="path4181"
     d="M 16.351287,49.532986 C 9.2932194,46.19631 3.973872,35.667354 4.7867028,27.030639 6.0118531,14.012836 13.150073,-0.33546119 32.581568,5.166024 52.541483,10.817118 52.928686,28.23303 48.195394,40.151195 43.685071,51.507931 26.475646,54.31924 16.351287,49.532986 Z m 27.9882,-9.274906 C 57.678646,13.956258 30.856678,2.9866461 18.057135,8.5091744 7.60953,13.016929 4.8777553,42.037346 16.887361,46.579441 c 9.925016,3.551414 22.79049,2.870337 27.452126,-6.321361 z M 15.431401,42.344984 28.076115,8.2221427 40.205991,40.597875 l -4.410585,2.020543 -2.550415,-9.2637 -10.96764,0.407274 -3.424101,9.609092 z m 12.621645,-28.3279 -5.832645,16.768781 10.90533,-0.172685 z"
     fill="param(fill) #000" />
</svg>
