<?xml version="1.0" encoding="UTF-8" standalone="no"?>
<svg
   xmlns:dc="http://purl.org/dc/elements/1.1/"
   xmlns:cc="http://creativecommons.org/ns#"
   xmlns:rdf="http://www.w3.org/1999/02/22-rdf-syntax-ns#"
   xmlns:svg="http://www.w3.org/2000/svg"
   xmlns="http://www.w3.org/2000/svg"
   viewBox="0 0 56.308655 56.25"
   height="56.25"
   width="56.308655"
   version="1.1"
   id="svg4901">
  <metadata
     id="metadata4907">
    <rdf:RDF>
      <cc:Work
         rdf:about="">
        <dc:format>image/svg+xml</dc:format>
        <dc:type
           rdf:resource="http://purl.org/dc/dcmitype/StillImage" />
        <dc:title></dc:title>
      </cc:Work>
    </rdf:RDF>
  </metadata>
  <defs
     id="defs4905" />
  <path
     id="path6116"
     d="M 26.645166,52.675296 C 19.362727,53.056529 11.598961,50.07517 7.2052206,43.233473 0.21260153,32.636868 1.7420392,15.803657 11.072379,7.5638024 19.170712,0.92288735 30.689664,0.6257953 39.28404,6.2712941 46.983873,11.14269 52.842939,20.496092 52.837271,30.649354 c -0.142533,8.035867 -5.48284,14.670124 -11.576691,18.134568 -4.487761,2.63333 -9.566575,3.906159 -14.615414,3.891374 z m 0.149481,-3.125755 c 1.479503,0.108649 5.049622,-0.629886 5.261117,-0.939154 -3.397012,0.449481 -6.8253,0.393815 -10.239691,0.429115 1.642241,0.331308 3.309273,0.520188 4.978574,0.510039 z M 15.47555,47.214585 c 0.40779,-6.396298 0.897066,-12.788509 0.813158,-19.209256 0.06846,-6.103597 -0.155943,-12.24356 0.09594,-18.3251548 0.761142,-0.8021864 2.073867,0.1198493 3.006077,-0.1810569 5.394759,0.1510688 11.13648,-0.5802526 16.159861,2.1056607 2.721625,1.427645 4.035401,4.934946 3.697264,8.189027 -0.07363,3.695565 -1.105055,8.15582 -4.426854,9.714411 3.325539,2.463558 6.771638,3.101851 6.960818,8.956866 0.189181,5.855015 -5.131165,7.093903 -5.061068,8.204933 4.401949,-0.907359 8.184207,-4.168963 11.063592,-7.89855 1.69926,-2.20258 2.415525,-5.144698 2.134904,-8.022063 C 49.693776,21.742153 44.75615,13.128666 37.505133,9.291496 31.560691,5.839451 24.207232,5.1065053 18.064794,8.3578407 13.067129,10.538417 8.2951896,14.582629 6.654175,20.56585 4.6146611,27.824126 4.8394584,36.626722 9.430346,42.640329 c 1.628523,2.051534 3.681902,3.784017 6.045204,4.574256 z m 3.886529,-1.66582 c 4.138584,-0.556417 8.492342,0.170458 12.456153,-1.55018 3.070013,-1.402149 6.566225,-4.932295 5.293619,-8.163558 -1.66074,-3.645443 -8.109214,-5.072307 -11.324199,-5.1965 -2.141471,-0.07012 -4.285114,0.0636 -6.425573,-0.05876 z m 0,-17.968408 c 4.138584,-0.556417 8.492342,0.170458 12.456153,-1.55018 3.070013,-1.402149 4.158545,-6.019635 2.885939,-9.250898 -1.66074,-3.645443 -5.701534,-3.984967 -8.916519,-4.109159 -2.141471,-0.07012 -4.285114,0.0636 -6.425573,-0.05876 z"
     fill="param(fill) #000" />
</svg>
