<?xml version="1.0" encoding="UTF-8" standalone="no"?>
<svg
   xmlns:dc="http://purl.org/dc/elements/1.1/"
   xmlns:cc="http://creativecommons.org/ns#"
   xmlns:rdf="http://www.w3.org/1999/02/22-rdf-syntax-ns#"
   xmlns:svg="http://www.w3.org/2000/svg"
   xmlns="http://www.w3.org/2000/svg"
   viewBox="0 0 56.308655 56.25"
   height="56.25"
   width="56.308655"
   version="1.1"
   id="svg4558">
  <metadata
     id="metadata4564">
    <rdf:RDF>
      <cc:Work
         rdf:about="">
        <dc:format>image/svg+xml</dc:format>
        <dc:type
           rdf:resource="http://purl.org/dc/dcmitype/StillImage" />
        <dc:title></dc:title>
      </cc:Work>
    </rdf:RDF>
  </metadata>
  <defs
     id="defs4562" />
  <path
     transform="matrix(1.6502645,0,0,1.5804353,-17.279647,-15.805614)"
     d="m 26.560547,11.357422 a 0.258256,0.258256 0 0 0 -0.144531,0.05859 l -1.47461,1.224609 -1.474609,1.224609 a 0.258256,0.258256 0 0 0 -0.08008,0.115235 L 21.625,19.152344 19.861328,24.326172 a 0.258256,0.258256 0 0 0 -0.01367,0.08008 l -0.128906,9.751953 -0.128906,9.753906 a 0.258256,0.258256 0 0 0 0.439453,0.185547 L 20.5625,43.564453 c 0.07167,-0.07167 0.0911,-0.129524 0.115234,-0.195312 0.02413,-0.06579 0.04501,-0.138768 0.06445,-0.22461 0.03888,-0.171682 0.0747,-0.391453 0.109374,-0.662109 0.06935,-0.541313 0.132971,-1.280924 0.189454,-2.167969 0.112965,-1.774089 0.194231,-4.141929 0.21875,-6.681641 l 0.08984,-9.177734 1.777344,-5.199219 c 0.489786,-1.432122 1.040597,-2.800941 1.529297,-3.84375 0.24435,-0.521404 0.472874,-0.96056 0.667969,-1.283203 0.195094,-0.322643 0.387703,-0.532822 0.419922,-0.552734 l 0.830078,-0.513672 1.794922,0.570312 1.783203,0.566407 0.990234,2.83789 0.917969,2.632813 -2.355469,0.117187 -2.697266,0.136719 a 0.258256,0.258256 0 0 0 -0.03125,0.511719 l 2.5,0.449219 c 0.667514,0.11975 1.385463,0.331704 1.994141,0.572265 0.608679,0.240561 1.113318,0.523218 1.320313,0.722657 l 0.490234,0.472656 -2.560547,0 -3.199219,0 a 0.258256,0.258256 0 0 0 -0.257812,0.257812 l 0,1 0,1 a 0.258256,0.258256 0 0 0 0.257812,0.257813 l 3,0 2.742188,0 0,1.175781 0,1.210938 -2.53125,0.382812 -2.75,0.416016 a 0.258256,0.258256 0 0 0 0.02734,0.513672 l 3.25,0.15039 3.003906,0.138672 0,0.753906 0,0.753906 -3.00586,0.148438 -3.25,0.160156 a 0.258256,0.258256 0 0 0 -0.02539,0.513672 l 3.5,0.523438 1.894531,0.283203 -2.398437,0.404297 -4,0.673828 a 0.258256,0.258256 0 0 0 0.0332,0.511718 l 3.75,0.142579 3.501953,0.132812 0,0.751953 0,0.75586 -2.50586,0.134765 -2.75,0.150391 a 0.258256,0.258256 0 0 0 -0.02539,0.513672 l 3,0.46875 2.074219,0.324218 -1.132813,0.458985 a 0.258256,0.258256 0 0 0 0,0.002 l -2,0.8125 a 0.258256,0.258256 0 0 0 0.08594,0.496094 l 1.683593,0.07031 1.478516,0.0625 0.457031,2.544922 0.496094,2.75 a 0.258256,0.258256 0 0 0 0.511719,-0.05273 l -0.353516,-10.5 -0.04883,-1.476563 a 0.258256,0.258256 0 0 0 -0.01172,-0.308593 0.258256,0.258256 0 0 0 0,-0.002 l -0.292968,-8.71289 a 0.258256,0.258256 0 0 0 -0.01367,-0.07813 L 33.220703,18.498047 31.525391,13.671875 A 0.258256,0.258256 0 0 0 31.388672,13.523438 L 29.039062,12.453125 26.6875,11.380859 a 0.258256,0.258256 0 0 0 -0.126953,-0.02344 z"
     id="path4581"
     style="fill:#804000;fill-opacity:1" />
</svg>
