<?xml version="1.0" encoding="UTF-8" standalone="no"?>
<svg
   xmlns:dc="http://purl.org/dc/elements/1.1/"
   xmlns:cc="http://creativecommons.org/ns#"
   xmlns:rdf="http://www.w3.org/1999/02/22-rdf-syntax-ns#"
   xmlns:svg="http://www.w3.org/2000/svg"
   xmlns="http://www.w3.org/2000/svg"
   viewBox="0 0 56.308655 56.25"
   height="56.25"
   width="56.308655"
   version="1.1"
   id="svg4539">
  <metadata
     id="metadata4545">
    <rdf:RDF>
      <cc:Work
         rdf:about="">
        <dc:format>image/svg+xml</dc:format>
        <dc:type
           rdf:resource="http://purl.org/dc/dcmitype/StillImage" />
        <dc:title></dc:title>
      </cc:Work>
    </rdf:RDF>
  </metadata>
  <defs
     id="defs4543" />
  <path
     transform="matrix(2.0980397,0,0,2.5461037,-26.885469,-28.363274)"
     d="m 24.53125,14.076172 a 0.16894389,0.16894389 0 0 0 -0.132812,0.08984 l -1.423829,2.75 c -0.408874,0.789851 -0.813578,2.205992 -1.158203,3.880859 -0.344625,1.674867 -0.622529,3.602565 -0.751953,5.384766 l -0.46875,6.449218 a 0.16899075,0.16899075 0 0 0 0.335938,0.03711 l 0.917968,-6.09375 c 0.502824,-3.341958 1.395419,-7.278906 1.957032,-8.677735 l 1.001953,-2.490234 1.259765,0.25 c 0.327656,0.06508 0.827235,0.355274 1.322266,0.777344 0.495031,0.42207 0.994424,0.972401 1.369141,1.537109 l 1.224609,1.847656 -1.675781,0 c -0.6881,0 -1.206708,0.115759 -1.566406,0.310547 -0.359699,0.194788 -0.569967,0.489523 -0.550782,0.806641 0.01919,0.317117 0.251878,0.603255 0.628906,0.810547 0.377029,0.207292 0.90986,0.346427 1.59961,0.376953 l 1.171875,0.05273 -1.449219,0.462891 -2.345703,0.75 a 0.16894389,0.16894389 0 0 0 0.04297,0.328125 l 2.111328,0.09375 c 0.669077,0.02961 1.161489,0.164691 1.472656,0.335937 0.311167,0.171247 0.429688,0.362724 0.429688,0.527344 0,0.16462 -0.119807,0.360441 -0.431641,0.53711 -0.311834,0.176668 -0.803533,0.318918 -1.472656,0.359374 l -2.111328,0.128907 a 0.16894389,0.16894389 0 0 0 -0.02344,0.333984 l 2.345703,0.484375 1.685547,0.347656 -1.701172,0.507813 -2.345703,0.701172 a 0.16894389,0.16894389 0 0 0 0.04297,0.330078 l 2.515625,0.09375 2.380859,0.08984 0.373047,1.976562 c 0.02826,0.149244 0.05028,0.245055 0.08203,0.322266 0.0079,0.0193 0.01484,0.03918 0.03125,0.0625 0.01641,0.02332 0.04318,0.06231 0.117188,0.07813 0.074,0.01582 0.153813,-0.03379 0.179687,-0.06641 0.02587,-0.03262 0.03243,-0.05359 0.03906,-0.07422 0.02652,-0.08253 0.02904,-0.163807 0.03516,-0.292969 0.0061,-0.129162 0.0091,-0.296365 0.0078,-0.5 -0.005,-0.814541 -0.0681,-2.218875 -0.185547,-4.025391 l -0.425781,-6.5625 a 0.16894389,0.16894389 0 0 0 -0.0293,-0.08594 L 29.3125,17.076172 c -0.46324,-0.658288 -1.050708,-1.285673 -1.630859,-1.773438 -0.580152,-0.487764 -1.142885,-0.839539 -1.611329,-0.93164 l -1.488281,-0.292969 a 0.16894389,0.16894389 0 0 0 -0.05078,-0.002 z"
     id="path4551"
     style="fill:#804000;fill-opacity:1" />
</svg>
