<?xml version="1.0" encoding="UTF-8" standalone="no"?>
<svg
   xmlns:dc="http://purl.org/dc/elements/1.1/"
   xmlns:cc="http://creativecommons.org/ns#"
   xmlns:rdf="http://www.w3.org/1999/02/22-rdf-syntax-ns#"
   xmlns:svg="http://www.w3.org/2000/svg"
   xmlns="http://www.w3.org/2000/svg"
   viewBox="0 0 56.308655 56.25"
   height="56.25"
   width="56.308655"
   version="1.1"
   id="svg5621">
  <metadata
     id="metadata5627">
    <rdf:RDF>
      <cc:Work
         rdf:about="">
        <dc:format>image/svg+xml</dc:format>
        <dc:type
           rdf:resource="http://purl.org/dc/dcmitype/StillImage" />
        <dc:title></dc:title>
      </cc:Work>
    </rdf:RDF>
  </metadata>
  <defs
     id="defs5625" />
  <path
     id="path5634"
     d="M 25.817381,3.4370466 C 17.577071,3.8015311 8.9968189,7.9645191 4.9180221,15.926511 0.36464166,24.49394 2.1736286,36.101058 8.8830162,42.809542 15.598055,49.737012 25.571571,51.704875 34.583527,50.46203 40.333339,49.709257 46.239256,46.554395 48.781103,40.731806 52.01223,33.413586 50.339589,24.714324 46.808411,17.884382 42.985549,10.372376 36.029441,3.946484 27.754028,3.4323468 c -0.644982,-0.036091 -1.291832,-0.034922 -1.936647,0.00481 z m 0.864147,2.5152686 c 11.88253,1.3645347 21.892139,13.4086508 21.332209,26.2214648 -0.313212,4.66243 -2.899346,9.192487 -6.877901,11.271603 3.69779,-5.628708 2.998288,-11.121196 -3.356197,-15.976125 -2.89938,-2.669729 -5.589551,-6.571334 -4.973894,-10.868812 0.909867,-2.996222 4.68874,-3.251396 6.836131,-1.740206 0.810568,0.689401 2.82379,3.338637 2.369417,0.646908 -1.075169,-2.97151 -4.631826,-3.787813 -7.308811,-3.85049 -3.006437,-0.08708 -5.092675,2.95398 -4.999248,5.963877 -0.0942,4.457796 2.574823,8.509429 6.017903,10.814552 3.767805,2.620766 5.776403,8.045387 4.286189,12.637826 -0.683417,2.969451 -4.297283,4.152983 -6.279166,1.783481 -1.657465,-0.601576 -1.300058,-5.363473 -3.093031,-4.313328 -0.528511,2.938777 -0.435748,6.928453 2.393279,8.508392 -2.93322,0.752104 -8.965726,0.385243 -8.965726,0.385243 0,0 3.065423,-2.386464 3.852789,-4.654368 2.001519,-5.765118 -0.35222,-12.349552 -5.040488,-15.397812 -2.928843,-1.903333 -5.885083,-4.574034 -6.461121,-8.38734 -0.567757,-2.542646 1.446777,-4.755853 3.735512,-4.911647 2.061041,-0.286288 4.276258,0.151719 6.038123,1.322317 0.600729,1.12668 2.303978,2.131031 1.640222,-0.01673 -1.047107,-2.711791 -4.284866,-2.835483 -6.647209,-3.036163 -3.072214,-0.106898 -6.727791,1.665316 -7.183167,5.252589 -0.624862,4.648155 2.776529,8.700608 6.387276,10.740083 3.675079,2.414042 6.591842,7.174032 5.355191,11.894971 -0.977267,3.863982 -6.267732,5.271932 -8.694101,2.160112 -1.988839,-1.566573 -0.756995,-5.20706 -2.502615,-6.397397 -1.242663,1.823277 -2.155522,4.694526 -0.45055,6.57428 -0.782431,0.52666 -3.080828,-2.36736 -3.994913,-3.410834 C 4.1519321,31.447157 4.3717173,18.85608 11.329793,11.90754 15.366628,7.7179982 21.139792,5.8797506 26.681528,5.9523473 Z"
     fill="param(fill) #000" />
</svg>
