<?xml version="1.0" encoding="UTF-8" standalone="no"?>
<svg
   xmlns:dc="http://purl.org/dc/elements/1.1/"
   xmlns:cc="http://creativecommons.org/ns#"
   xmlns:rdf="http://www.w3.org/1999/02/22-rdf-syntax-ns#"
   xmlns:svg="http://www.w3.org/2000/svg"
   xmlns="http://www.w3.org/2000/svg"
   viewBox="0 0 56.308655 56.25"
   height="56.25"
   width="56.308655"
   version="1.1"
   id="svg6124">
  <metadata
     id="metadata6130">
    <rdf:RDF>
      <cc:Work
         rdf:about="">
        <dc:format>image/svg+xml</dc:format>
        <dc:type
           rdf:resource="http://purl.org/dc/dcmitype/StillImage" />
        <dc:title></dc:title>
      </cc:Work>
    </rdf:RDF>
  </metadata>
  <defs
     id="defs6128" />
  <path
     id="path6136"
     d="M 24.932744,3.6445847 C -3.120173,5.2966831 -7.2381574,53.71733 29.41096,52.825594 66.060076,51.933857 52.985658,1.9924862 24.932744,3.6445847 Z m 1.022771,4.2091345 C 53.123777,6.7473792 53.73658,41.859909 34.457883,48.258746 30.601039,49.376527 26.6111,49.901939 22.643372,50.203657 26.406257,46.91066 28.09133,44.7057 27.671605,39.776557 27.251877,34.847414 21.381303,29.298764 19.01406,27.328899 16.334059,24.787334 14.059955,20.666346 15.199217,16.646882 c 1.275034,-3.502427 5.609732,-3.391201 8.103216,-1.696627 1.674734,0.291032 1.693092,5.361705 3.257503,3.111086 0.432416,-2.983402 -1.146348,-6.226332 -4.07291,-6.387183 -3.459901,-0.697541 -7.79657,-0.0859 -9.668594,3.667105 -5.1227794,12.411666 12.981642,17.556785 11.505458,26.455711 -1.031389,4.712988 -5.098992,7.085157 -10.788097,-2.18314 -0.535349,2.243862 -0.403514,5.179113 1.810414,8.571325 C -3.7691046,31.711378 8.9501736,9.0993967 25.955515,7.8537192 Z m 7.033699,2.7072998 c -2.430779,-0.5682901 -4.452666,1.696542 -4.431523,4.330851 l 0.41006,32.287981 c 4.311948,4.341668 2.149292,-12.667807 2.96497,-18.248684 0,0 7.410549,-0.340573 9.14038,-2.687503 3.817826,-4.686072 1.573422,-13.150182 -3.821772,-14.986696 -1.36733,-0.533512 -2.832651,-0.571951 -4.262221,-0.695949 z m 7.129629,9.032339 c 0.123299,4.484774 -8.465614,10.953856 -8.621252,0.521579 -0.155645,-10.4322761 8.497947,-5.006354 8.621252,-0.521579 z"
     fill="param(fill) #000" />
</svg>
