<?xml version="1.0" encoding="UTF-8" standalone="no"?>
<svg
   xmlns:dc="http://purl.org/dc/elements/1.1/"
   xmlns:cc="http://creativecommons.org/ns#"
   xmlns:rdf="http://www.w3.org/1999/02/22-rdf-syntax-ns#"
   xmlns:svg="http://www.w3.org/2000/svg"
   xmlns="http://www.w3.org/2000/svg"
   viewBox="0 0 56.308655 56.25"
   height="56.25"
   width="56.308655"
   version="1.1"
   id="svg6495">
  <metadata
     id="metadata6501">
    <rdf:RDF>
      <cc:Work
         rdf:about="">
        <dc:format>image/svg+xml</dc:format>
        <dc:type
           rdf:resource="http://purl.org/dc/dcmitype/StillImage" />
        <dc:title></dc:title>
      </cc:Work>
    </rdf:RDF>
  </metadata>
  <defs
     id="defs6499" />
  <path
     id="path6509"
     d="m 14.358861,2.428342 -3.002381,3.019596 2.57388,3.6596181 3.302862,-3.6354753 z m 20.174913,0.6870372 0.265691,4.320548 5.186671,-0.2068444 -0.599168,-3.9941898 z m 14.933268,16.8095198 -0.07575,4.943299 3.549427,0.08703 0.132339,-4.734736 c -1.211873,-0.1905 -3.606028,-0.295596 -3.606028,-0.295596 z M 22.745663,20.029943 22.301189,39.41329 36.758048,28.51819 22.795203,20.030757 Z m -19.5733011,4.937796 -0.6854585,4.531078 3.919101,0.424876 0.2567441,-4.955954 z m 41.9809701,17.930155 -2.798561,3.62058 3.506801,4.132908 2.756739,-4.234766 z m -29.122442,4.09169 -1.482128,5.102845 4.881987,0.734856 1.782299,-4.280405 z"
     style="fill:#804000;fill-opacity:1" />
</svg>
