<?xml version="1.0" encoding="UTF-8" standalone="no"?>
<svg
   xmlns:dc="http://purl.org/dc/elements/1.1/"
   xmlns:cc="http://creativecommons.org/ns#"
   xmlns:rdf="http://www.w3.org/1999/02/22-rdf-syntax-ns#"
   xmlns:svg="http://www.w3.org/2000/svg"
   xmlns="http://www.w3.org/2000/svg"
   viewBox="0 0 56.308655 56.25"
   height="56.25"
   width="56.308655"
   version="1.1"
   id="svg6029">
  <metadata
     id="metadata6035">
    <rdf:RDF>
      <cc:Work
         rdf:about="">
        <dc:format>image/svg+xml</dc:format>
        <dc:type
           rdf:resource="http://purl.org/dc/dcmitype/StillImage" />
        <dc:title></dc:title>
      </cc:Work>
    </rdf:RDF>
  </metadata>
  <defs
     id="defs6033" />
  <path
     id="path6039"
     d="m 15.830035,27.167744 0,-10.932114 -1.788114,-1.681864 -1.788112,-1.681863 -5.2898352,-0.139707 -5.2898333,-0.139707 3.6708841,-0.962578 3.6708854,-0.96258 1.023388,-3.4527611 1.023388,-3.4527614 0.148536,3.6370473 0.148537,3.6370472 2.724997,2.319553 2.724995,2.319553 11.945,0 11.944997,0 2.466087,-2.563078 2.466088,-2.563075 0.172852,-3.3935251 0.172853,-3.3935224 0.703113,2.5585018 0.703114,2.5585018 3.221791,-2.5484749 3.221794,-2.5484749 -3.497294,3.7289429 -3.497294,3.7289438 3.497294,0.625211 3.497294,0.625211 -4.544787,0.190866 -4.544795,0.190866 -1.788113,1.681863 -1.788112,1.681864 0,10.932114 0,10.932114 -12.665801,0 -12.665797,0 z m 23.064832,-9.159177 -20.565067,0.07767 -0.233001,17.29173 20.875735,0 z M 4.512751,6.9153029 1.6741405,3.7618085 5.0268513,6.4317498 c 3.150723,2.5090865 4.0310634,3.6370472 2.8386119,3.6370472 -0.2827562,0 -1.7914756,-1.4190727 -3.3527122,-3.1534941 z"
     fill="param(fill) #000" />
</svg>
