<?xml version="1.0" encoding="UTF-8" standalone="no"?>
<svg
   xmlns:dc="http://purl.org/dc/elements/1.1/"
   xmlns:cc="http://creativecommons.org/ns#"
   xmlns:rdf="http://www.w3.org/1999/02/22-rdf-syntax-ns#"
   xmlns:svg="http://www.w3.org/2000/svg"
   xmlns="http://www.w3.org/2000/svg"
   id="svg5531"
   version="1.1"
   width="56.308655"
   height="56.25"
   viewBox="0 0 56.308655 56.25">
  <metadata
     id="metadata5537">
    <rdf:RDF>
      <cc:Work
         rdf:about="">
        <dc:format>image/svg+xml</dc:format>
        <dc:type
           rdf:resource="http://purl.org/dc/dcmitype/StillImage" />
        <dc:title></dc:title>
      </cc:Work>
    </rdf:RDF>
  </metadata>
  <defs
     id="defs5535" />
  <path
     fill="param(fill) #000"
     d="m 14.888661,37.750704 0,-16.510046 c 1.350513,-1.354651 5.892433,-4.98857 5.892433,-4.98857 l -4.336475,-1.103728 0.355559,-12.6691162 22.786549,0 0,13.5082172 -3.483785,0.945397 5.541957,3.397915 0,33.92998 -26.756231,0 z M 39.58672,36.522926 39.077131,20.850477 33.122747,17.335083 21.562889,17.539711 17.233531,22.729466 c 0.11297,7.602308 -0.314374,17.070315 -0.286698,24.675174 l 0,4.604742 22.639887,0 z M 37.36773,4.6526899 c 0,0 -12.689586,0.077921 -18.362726,0.077921 l 0,9.0054791 18.523544,0 z"
     id="path5541" />
</svg>
