<?xml version="1.0" encoding="UTF-8" standalone="no"?>
<svg
   xmlns:dc="http://purl.org/dc/elements/1.1/"
   xmlns:cc="http://creativecommons.org/ns#"
   xmlns:rdf="http://www.w3.org/1999/02/22-rdf-syntax-ns#"
   xmlns:svg="http://www.w3.org/2000/svg"
   xmlns="http://www.w3.org/2000/svg"
   id="svg5878"
   version="1.1"
   width="56.308655"
   height="56.25"
   viewBox="0 0 56.308655 56.25">
  <metadata
     id="metadata5884">
    <rdf:RDF>
      <cc:Work
         rdf:about="">
        <dc:format>image/svg+xml</dc:format>
        <dc:type
           rdf:resource="http://purl.org/dc/dcmitype/StillImage" />
        <dc:title></dc:title>
      </cc:Work>
    </rdf:RDF>
  </metadata>
  <defs
     id="defs5882" />
  <path
     fill="param(fill) #000"
     d="M 26.488208,2.5905332 C 21.563256,2.7827116 16.866465,4.8144668 12.673921,7.6047293 6.3456155,11.121953 2.0991558,19.040794 2.8173031,27.000014 2.9693133,30.105431 2.5843745,33.304118 3.6396121,36.277676 9.111552,49.66961 25.597652,56.150441 36.566445,49.758813 c 7.500468,-2.928634 14.090656,-9.946266 15.544447,-18.923 0.99316,-4.390735 0.508674,-9.206688 -1.731289,-13.032706 C 47.536473,12.665063 43.070416,9.0046095 38.628054,5.7412358 34.982947,3.3497236 30.687209,2.3600466 26.488208,2.5905332 Z m 5.314006,4.4907231 c 3.556441,0.079415 5.759781,3.1618117 5.759781,3.1618117 0,0 -6.860185,7.773812 -9.455499,10.938427 C 24.486535,17.289255 20.949426,13.292687 17.179061,9.584576 22.045975,7.4959034 28.24577,7.0018509 31.802214,7.0812563 Z M 14.783675,10.58052 C 14.102766,20.719801 16.486504,33.888994 12.948042,42.981549 10.862053,44.027034 9.2195607,41.445795 8.4738287,39.566501 5.3754419,32.466202 5.7078164,23.885298 8.2981101,16.666806 9.6646209,13.863548 12.360381,12.088594 14.783675,10.58052 Z m 26.978109,1.790006 c 5.782683,4.785209 9.17847,13.897328 6.417063,21.655062 -1.03395,2.584154 -2.326953,5.489427 -4.721484,6.759346 -4.18703,-6.325268 -3.2955,-21.054678 -2.011515,-27.80295 l 0.156014,-0.332592 z m -23.653411,2.593046 c 3.099027,3.427878 6.13634,6.940048 9.27381,10.315431 0.971664,0.434326 1.496859,-0.986845 2.180397,-1.491182 l 7.136051,-7.648855 c 0.391621,-0.515 1.19344,-1.402474 1.013114,0.31312 0.367751,4.248621 -0.421547,8.505621 -0.04775,12.755284 -0.06729,1.483253 -0.0048,3.981585 0.01827,5.854386 0.02747,3.905885 0.19429,8.626213 -2.95507,11.20864 -2.392048,1.455475 -4.930801,2.869146 -7.725256,2.93383 C 23.846465,49.386571 20.012918,47.795631 19.05384,44.120203 17.484548,34.49968 18.245557,24.676751 18.108373,14.963572 Z"
     id="path5890" />
</svg>
