<?xml version="1.0" encoding="UTF-8" standalone="no"?>
<svg
   xmlns:dc="http://purl.org/dc/elements/1.1/"
   xmlns:cc="http://creativecommons.org/ns#"
   xmlns:rdf="http://www.w3.org/1999/02/22-rdf-syntax-ns#"
   xmlns:svg="http://www.w3.org/2000/svg"
   xmlns="http://www.w3.org/2000/svg"
   id="svg6215"
   version="1.1"
   width="56.308655"
   height="56.25"
   viewBox="0 0 56.308655 56.25">
  <metadata
     id="metadata6221">
    <rdf:RDF>
      <cc:Work
         rdf:about="">
        <dc:format>image/svg+xml</dc:format>
        <dc:type
           rdf:resource="http://purl.org/dc/dcmitype/StillImage" />
        <dc:title></dc:title>
      </cc:Work>
    </rdf:RDF>
  </metadata>
  <defs
     id="defs6219" />
  <path
     style="fill:#0000ff;fill-opacity:1"
     d="M 27.82867,33.578576 C 47.583129,32.679107 49.633225,2.2389163 26.640765,2.2561341 3.6483037,2.2733519 8.0742107,34.478045 27.82867,33.578576 Z M 37.47864,7.7836339 c 4.503282,7.4544011 3.647774,13.6249141 0.141088,18.9993151 L 33.5282,22.708453 27.781612,16.987834 32.630127,12.387141 Z m -20.164608,0.630309 c 0.939712,-0.095043 2.239233,1.0235484 5.190378,3.8240621 l 5.087278,4.831433 -4.981462,4.727317 c -2.73987,2.600024 -5.180551,4.727318 -5.423716,4.727318 -4.178285,-4.982781 -5.021427,-14.096419 0.127526,-18.1101301 z m 29.834505,25.5387711 0.17534,19.612015 c 0,0 -0.990917,-0.03501 1.817176,-0.184991 l -0.0011,-19.172807 z M 7.2693781,34.40487 c 0.826266,9.258391 0.9262721,10.337133 -0.2238863,19.20435 l 3.8041322,0.21932 c 0,0 -2.5712337,-4.710654 -1.6356334,-10.538584 C 20.3395,43.069291 20.080761,33.420252 7.2693781,34.40487 Z m 26.7634799,0.574911 c -2.778744,0.208294 -4.343856,3.181384 -4.343856,8.481032 0,3.191173 0.357027,6.7629 0.792259,7.937954 0.46926,1.266921 2.327053,2.138549 4.563626,2.138549 3.768843,0 3.771368,-0.0075 3.771368,-8.68926 0,-7.569916 -0.343521,-8.80226 -2.669802,-9.56719 -0.766392,-0.252006 -1.472345,-0.349154 -2.113595,-0.301085 z M 9.2506146,36.090295 c 12.2815224,3.201655 0.2870961,5.291061 0.2870961,5.291061 0,0 -0.3237201,1.9086 -0.2870961,-5.291061 z m 25.0020144,0.563744 c 2.259763,0 2.659246,1.035464 2.998102,7.766307 0.357275,7.096725 0.156928,7.766308 -2.322511,7.766308 -3.388723,0 -4.208781,-2.144899 -3.689972,-9.637537 0.336064,-4.853436 0.86761,-5.895078 3.014381,-5.895078 z M 19.556164,35.90678 18.176328,52.451755 20.322055,52.266313 c 0,0 -1.039244,-8.617334 3.716169,-8.530006 3.463099,0.06359 1.779448,8.530006 1.779448,8.530006 l 2.253321,0.185442 -0.187297,-16.23536 -1.245485,0.24685 c -0.807705,3.661951 1.170162,5.389796 -2.815178,5.476051 -4.191494,0.09072 -2.135256,-2.98704 -2.551611,-5.834488 C 21.19674,35.59409 19.556164,35.90678 19.556164,35.90678 Z"
     id="path6225" />
</svg>
