<?xml version="1.0" encoding="UTF-8" standalone="no"?>
<svg
   xmlns:dc="http://purl.org/dc/elements/1.1/"
   xmlns:cc="http://creativecommons.org/ns#"
   xmlns:rdf="http://www.w3.org/1999/02/22-rdf-syntax-ns#"
   xmlns:svg="http://www.w3.org/2000/svg"
   xmlns="http://www.w3.org/2000/svg"
   id="svg6358"
   version="1.1"
   width="56.308655"
   height="56.25"
   viewBox="0 0 56.308655 56.25">
  <metadata
     id="metadata6364">
    <rdf:RDF>
      <cc:Work
         rdf:about="">
        <dc:format>image/svg+xml</dc:format>
        <dc:type
           rdf:resource="http://purl.org/dc/dcmitype/StillImage" />
        <dc:title></dc:title>
      </cc:Work>
    </rdf:RDF>
  </metadata>
  <defs
     id="defs6362" />
  <path
     fill="param(fill) #000"
     d="M 29.067306,3.4297777 C 24.454032,2.9452882 19.72446,3.7527749 15.620074,6.2197743 10.918649,8.8664585 6.325356,12.823448 4.4222951,18.479401 c -1.3129265,4.97665 -1.121822,10.309317 -0.5396303,15.403115 0.7251961,6.0054 3.7713505,11.864606 8.7940012,14.554406 4.838345,2.53224 10.257683,3.52972 15.575951,3.641966 7.838128,0.13604 16.013391,-3.311019 20.717024,-10.542567 C 57.158238,28.751047 52.012262,10.612262 41.465395,6.0382958 37.46811,4.5433308 33.26643,3.7607577 29.067306,3.4297777 Z m -1.174213,4.9763219 c 4.543183,0.1027354 9.281343,0.5252941 13.408604,2.7935674 -4.01509,0.943377 -8.171303,-0.143451 -12.208504,0.727427 -2.54894,-0.470521 -4.174186,3.622558 -0.959782,3.876201 3.75382,0.334869 7.534092,0.192426 11.30004,0.305325 -3.345615,8.183282 -6.421422,16.526703 -10.548336,24.279456 -0.659692,1.791297 -4.07383,5.75299 -0.717039,6.346934 1.609071,-0.02322 13.43804,-1.148346 13.43804,-1.148346 -7.093796,3.650723 -14.265335,4.202442 -20.99041,0.951335 0.625781,-4.315941 0.150923,-8.920218 0.315429,-13.287746 0.06127,-7.514756 0.335638,-15.055082 -0.188209,-22.553618 0.230841,-1.1951056 -2.005109,-1.5863175 -0.184244,-1.6378509 2.420155,-0.4693432 4.879604,-0.6528046 7.334411,-0.6526845 z m -8.255791,0.8443582 c -2.39497,0.8211612 -1.245308,4.6407932 -1.698679,6.8513762 -0.31958,9.709662 -0.384219,19.443636 0.03589,29.149365 C 16.679945,45.490856 14.173688,43.944527 12.577721,43.04777 10.322393,41.858225 8.9892242,39.40512 8.5714626,36.737247 7.3744437,30.520615 7.0313158,23.792006 9.0249158,17.730888 10.497647,13.246196 14.425936,10.483162 18.47973,9.5380403 18.863683,9.4329924 19.249754,9.3375898 19.637307,9.2504578 Z m 25.441239,7.7294662 c 4.242446,2.534136 5.383757,8.57232 4.540657,13.483105 -0.742141,4.431403 -2.987676,9.384209 -7.255417,10.50759 -2.863792,0.730158 -5.821427,0.366329 -8.732789,0.455266 2.92079,-7.186237 5.518507,-14.548893 8.841247,-21.521931 0.672476,-1.006659 1.296296,-2.966133 2.606302,-2.92403 z"
     id="path6384" />
</svg>
