<?xml version="1.0" encoding="UTF-8" standalone="no"?>
<svg
   xmlns:dc="http://purl.org/dc/elements/1.1/"
   xmlns:cc="http://creativecommons.org/ns#"
   xmlns:rdf="http://www.w3.org/1999/02/22-rdf-syntax-ns#"
   xmlns:svg="http://www.w3.org/2000/svg"
   xmlns="http://www.w3.org/2000/svg"
   id="svg4496"
   version="1.1"
   width="56.308655"
   height="56.25"
   viewBox="0 0 56.308655 56.25">
  <metadata
     id="metadata4502">
    <rdf:RDF>
      <cc:Work
         rdf:about="">
        <dc:format>image/svg+xml</dc:format>
        <dc:type
           rdf:resource="http://purl.org/dc/dcmitype/StillImage" />
        <dc:title></dc:title>
      </cc:Work>
    </rdf:RDF>
  </metadata>
  <defs
     id="defs4500" />
  <path
     fill="param(fill) #000"
     d="M 28.024073,1.3930583 C 20.682656,1.1110102 12.680885,2.5428261 7.084562,8.4732419 2.6826015,13.378015 1.436286,20.803514 1.6145906,27.598917 1.5225186,32.969594 2.4067108,38.884593 6.0361063,42.652664 9.3446784,46.537981 13.219989,50.17492 17.841366,51.659421 24.21662,53.065417 30.913205,52.838576 37.161351,50.783823 45.860429,47.328392 52.960424,37.606541 52.93122,26.752349 52.942855,17.74143 47.815518,9.4920173 40.97658,5.4614443 36.99651,3.0054407 32.524239,1.6705125 28.024073,1.3930583 Z M 24.265161,5.2581815 C 27.941399,4.784433 33.70663,6.4582681 37.188839,7.6994442 35.045636,7.7421837 30.793393,7.1342115 28.65455,7.1089346 c -1.589183,-0.064154 -2.742364,2.5207075 -1.721358,3.8945964 1.074427,0.468383 2.321469,0.165012 3.459783,0.340454 l 8.487867,0.403969 c -3.901249,11.797218 -8.019705,23.515194 -11.633111,35.428598 -0.0375,1.119825 9.047084,0.776307 9.713648,0.629274 -1.567515,0.761549 -12.794968,1.729456 -13.918354,0.03815 3.82987,-3.381022 5.584651,-9.954773 3.079684,-14.94525 C 24.55049,29.233564 21.32849,27.29943 18.55736,25.052455 15.338697,22.497141 14.536115,17.274318 15.792698,13.227018 c 1.27702,-2.24291 3.996851,-1.364334 5.926258,-1.053846 1.775063,0.628686 2.557797,2.719431 3.546086,4.298849 0.858062,0.661202 1.614415,-0.654687 1.413293,-1.579581 0.22144,-3.415351 -2.565809,-6.4485823 -5.513879,-6.0599276 -2.783658,-0.2502474 -6.370184,-0.5573482 -8.127589,2.5167326 -1.120973,3.866647 -1.732537,8.262311 -0.487593,12.180531 2.16601,5.390982 8.671031,5.953123 10.529295,11.621624 1.020103,2.798052 0.615509,6.895106 -1.967894,8.333591 -2.417059,1.148855 -4.925706,-0.827996 -6.014099,-3.268261 -0.523734,-1.695667 -3.261418,-2.597864 -3.7779,-0.541887 0.396524,1.990073 1.429038,3.759376 2.310095,5.513384 C 10.097474,42.621802 6.5549477,39.173125 5.7945088,34.172317 4.8198737,28.32884 5.4044211,22.279974 6.3532672,16.482293 6.8267102,13.822906 8.2050304,11.443679 10.310971,10.147514 14.430653,6.9969716 19.386359,5.6453921 24.265161,5.2581689 Z m 19.26858,8.0607285 c 2.160712,0.366741 2.819002,3.158747 3.931552,4.947713 4.261882,9.466509 -0.512224,22.791597 -9.534519,25.627006 -1.995114,0.536954 -4.05617,0.456386 -6.089576,0.442078 3.026449,-9.11296 5.759321,-18.370712 9.226514,-27.277881 0.687743,-1.295994 1.248055,-3.03573 2.466029,-3.738916 z"
     id="path4510" />
</svg>
