<?xml version="1.0" encoding="UTF-8" standalone="no"?>
<svg
   xmlns:dc="http://purl.org/dc/elements/1.1/"
   xmlns:cc="http://creativecommons.org/ns#"
   xmlns:rdf="http://www.w3.org/1999/02/22-rdf-syntax-ns#"
   xmlns:svg="http://www.w3.org/2000/svg"
   xmlns="http://www.w3.org/2000/svg"
   id="svg4794"
   version="1.1"
   width="56.308655"
   height="56.25"
   viewBox="0 0 56.308655 56.25">
  <metadata
     id="metadata4800">
    <rdf:RDF>
      <cc:Work
         rdf:about="">
        <dc:format>image/svg+xml</dc:format>
        <dc:type
           rdf:resource="http://purl.org/dc/dcmitype/StillImage" />
        <dc:title></dc:title>
      </cc:Work>
    </rdf:RDF>
  </metadata>
  <defs
     id="defs4798" />
  <path
     fill="param(fill) #000"
     d="M 28.860136,2.4450318 C 20.29409,1.9625335 12.383129,6.8899549 6.0900546,12.771753 3.0951509,15.31288 2.1958103,19.534744 2.174974,23.465089 2.1629005,29.295538 1.6078195,35.58799 4.2576423,40.902476 c 2.8825686,5.200402 8.4104727,7.430395 13.2703357,9.800549 3.970398,1.866671 8.387434,3.965545 12.756574,2.353443 5.774422,-2.111335 11.610572,-4.620678 16.354645,-8.87609 4.488832,-3.942829 6.578941,-10.180516 7.003517,-16.278444 0.54763,-3.752565 -0.006,-7.825449 -2.43383,-10.72348 C 46.083171,10.575834 39.643875,4.3213898 31.554229,2.7805645 30.663583,2.6094385 29.763345,2.4971433 28.860136,2.4450318 Z m -0.793413,3.6884095 c 4.564561,0.2209196 8.758784,2.3320128 12.828927,4.3996487 -4.001006,0.206214 -8.210256,-0.316544 -11.961468,1.482357 -2.508126,2.23455 0.934756,3.765908 2.550755,3.269838 l 8.26887,-0.375289 c -3.825646,9.407522 -7.937189,18.689113 -11.359644,28.280848 0.304804,2.655973 4.031037,1.733872 5.910004,2.147621 1.452199,0.05229 2.905449,0.05199 4.358175,0.07726 -3.816068,1.651699 -7.481317,4.044386 -11.640422,4.42848 -4.342531,-0.1368 -8.128972,-2.831466 -11.981428,-4.711152 0.435498,-4.09225 0.547146,-8.237405 0.852184,-12.350929 4.136472,5.00284 7.28649,10.376462 11.521867,15.272811 0.829491,0.542654 2.561955,-1.226746 1.788703,-1.806595 C 24.831972,40.269413 20.499745,34.257838 16.320866,28.118042 20.418231,22.10651 24.595466,16.14704 28.642031,10.10221 28.979139,9.1144389 27.399312,7.3324531 27.015747,8.264186 23.307604,12.837816 19.758751,18.658442 16.001823,23.184962 15.679397,19.285042 14.87537,15.38946 15.168921,11.464627 15.552967,8.498316 18.694864,7.9035191 20.854031,7.0636614 23.187973,6.3195653 25.635675,5.9746338 28.066723,6.1334761 Z m -17.13602,6.3829077 c 1.278358,4.497079 1.277406,9.296011 1.536202,13.962464 0.171754,5.899537 0.217035,11.82404 0.89021,17.687651 C 10.644144,42.632357 7.1899727,40.993767 6.7426338,37.255519 5.968496,31.772429 5.6446883,26.14023 6.2920809,20.62053 6.7891085,17.6483 7.4179095,13.73154 10.38702,12.605787 Z m 34.267842,3.341912 c 2.806865,1.42342 4.243751,4.680365 4.579762,7.886655 0.584858,4.85409 0.325629,10.157027 -1.99737,14.468677 -1.488882,2.532522 -4.580928,2.561373 -7.034455,3.022352 -2.745055,0.309037 -5.508874,0.161736 -8.263519,0.217769 3.053078,-7.358587 5.814695,-14.862769 9.231444,-22.033895 0.849737,-1.258223 1.673191,-3.967185 3.484138,-3.561558 z"
     id="path4806" />
</svg>
