<?xml version="1.0" encoding="UTF-8" standalone="no"?>
<svg
   xmlns:dc="http://purl.org/dc/elements/1.1/"
   xmlns:cc="http://creativecommons.org/ns#"
   xmlns:rdf="http://www.w3.org/1999/02/22-rdf-syntax-ns#"
   xmlns:svg="http://www.w3.org/2000/svg"
   xmlns="http://www.w3.org/2000/svg"
   id="svg4940"
   version="1.1"
   width="56.308655"
   height="56.25"
   viewBox="0 0 56.308655 56.25">
  <metadata
     id="metadata4946">
    <rdf:RDF>
      <cc:Work
         rdf:about="">
        <dc:format>image/svg+xml</dc:format>
        <dc:type
           rdf:resource="http://purl.org/dc/dcmitype/StillImage" />
        <dc:title></dc:title>
      </cc:Work>
    </rdf:RDF>
  </metadata>
  <defs
     id="defs4944" />
  <path
     fill="param(fill) #000"
     d="M 24.678387,2.2904269 C 18.504065,2.4480762 12.643932,5.8211846 8.0696811,10.381067 4.8394827,13.568248 2.5456056,18.052903 2.3831307,22.98814 c -0.4722119,7.631749 -0.1047858,16.161078 4.460994,22.260142 4.1356673,5.47562 10.7184603,6.978379 16.7159783,7.863242 8.391233,1.128163 17.617388,-1.160274 23.5505,-8.41147 4.24154,-5.356593 7.441896,-12.5197 6.772327,-19.895965 C 51.421141,12.633784 39.950089,3.8138144 30.619507,2.6068466 28.648837,2.34258 26.661848,2.2515213 24.678387,2.2904269 Z m 2.599979,4.8208785 c 4.224865,0.1034696 8.608106,1.1409259 12.552903,3.0459276 l -24.142762,1.141061 c -1.160273,0.0099 -4.665236,1.000841 -1.990463,-0.445428 4.158017,-2.4438631 8.981557,-3.6966754 13.580322,-3.7415606 z M 24.235756,45.738278 41.803451,44.56299 c -3.480494,3.759263 -18.74226,5.301128 -21.380082,3.016123 l 0.480364,-32.316755 17.99395,-0.427461 z M 9.3368637,15.599177 16.817693,15.491543 c 0.31957,9.821244 -0.327057,21.627876 -0.21811,30.497659 C 13.696334,44.780605 10.36669,43.446382 8.7477637,40.234623 6.8434169,34.558359 6.5257,28.254931 7.2474665,22.269962 7.589829,19.931067 8.2341336,17.624096 9.3368637,15.599177 Z M 44.506311,16.88622 c 3.657,1.887641 4.917883,6.889949 4.511998,11.136677 -0.386231,4.188591 -3.206614,9.59562 -5.470409,12.983653 l -11.771577,1.107234 c 2.901014,-7.298233 7.149252,-15.05764 10.437646,-22.146565 0.633383,-1.087826 1.17422,-2.567377 2.292342,-3.080999 z"
     id="path4955" />
</svg>
