<?xml version="1.0" encoding="UTF-8" standalone="no"?>
<svg
   xmlns:dc="http://purl.org/dc/elements/1.1/"
   xmlns:cc="http://creativecommons.org/ns#"
   xmlns:rdf="http://www.w3.org/1999/02/22-rdf-syntax-ns#"
   xmlns:svg="http://www.w3.org/2000/svg"
   xmlns="http://www.w3.org/2000/svg"
   id="svg5138"
   version="1.1"
   width="56.308655"
   height="56.25"
   viewBox="0 0 56.308655 56.25">
  <metadata
     id="metadata5144">
    <rdf:RDF>
      <cc:Work
         rdf:about="">
        <dc:format>image/svg+xml</dc:format>
        <dc:type
           rdf:resource="http://purl.org/dc/dcmitype/StillImage" />
        <dc:title></dc:title>
      </cc:Work>
    </rdf:RDF>
  </metadata>
  <defs
     id="defs5142" />
  <path
     fill="param(fill) #000"
     d="M 27.273885,1.3253867 C 20.31148,1.302119 12.808864,2.7722909 7.3722709,8.129114 2.2402835,13.246835 0.92191879,21.482549 1.1741441,28.929824 c -0.013447,5.0925 0.7091931,10.575587 3.9635708,14.360537 3.2947794,4.043152 7.1952371,7.650843 11.7112301,9.702454 10.164166,2.742194 21.709914,0.303246 29.629563,-7.767805 3.931428,-4.145339 6.998436,-9.777048 7.583132,-15.947859 C 54.85833,20.851507 50.978307,12.478681 44.988802,7.7298501 39.868202,3.5062109 33.536688,1.4815862 27.273885,1.3253867 Z m 0.259176,3.5187224 c 1.954677,11.9063279 0.808111,23.7317649 0.808745,33.8660719 -0.150448,-0.871007 -0.36602,-1.723986 -0.676052,-2.505952 -1.465696,-4.282257 -4.581881,-7.451098 -8.013892,-9.647271 -2.623751,-1.851767 -4.460631,-5.184966 -4.244759,-8.790311 -0.247864,-2.586551 0.449871,-6.143262 3.410167,-5.534522 2.437952,-0.185485 5.688682,0.846172 6.159239,4.038091 1.043214,3.023759 3.033825,-0.26401 2.079006,-2.191085 -0.08402,-3.439325 -3.189415,-5.1029594 -5.824207,-5.0930573 -2.724684,-0.00482 -6.326424,-0.6236012 -8.085684,2.3826013 -1.338818,2.955363 -1.31172,6.466509 -1.343128,9.721931 -0.0029,4.178908 3.068888,7.050225 5.991724,8.881201 3.201583,2.050128 6.673967,5.558697 6.057533,10.231559 -0.05609,2.865992 -2.41831,5.776053 -5.0285,4.774945 -2.942803,-0.77905 -3.699142,-5.42445 -6.817343,-5.674102 -2.873603,0.538737 4.254159,9.486735 4.116132,9.241513 C 4.84642,40.885132 1.0358454,20.465028 9.6606727,12.040609 15.813654,8.1766067 21.39865,4.6856178 27.533061,4.8441091 Z m 5.481271,0.7400993 c 1.18235,0.1138954 4.195775,1.1879196 6.649825,3.2655298 C 37.883503,14.55029 36.68805,20.511959 31.778894,20.837413 31.613055,14.541894 31.940428,5.78871 31.940428,5.78871 31.970769,5.6147307 32.389303,5.5240015 33.014332,5.5842084 Z m 8.821563,4.7522236 c 5.274515,4.016382 9.453911,11.194714 8.307046,18.703757 -1.025481,6.493865 -1.559333,9.106149 -6.209348,12.87456 -5.378871,-5.809187 -10.001329,-9.582204 -11.631208,-15.8025 4.089692,-3.916632 9.057417,-6.810506 9.53351,-15.775817 z M 30.728921,30.630755 c 2.993603,4.669794 10.954202,15.079446 9.949399,14.618452 -1.029882,1.881526 -4.41158,4.044067 -6.907171,3.374421 C 31.25128,42.151397 31.232697,36.640503 30.728921,30.630755 Z m -2.387115,12.338248 -1.305499,7.526277 c -2.007836,0.255152 -1.917527,0.158769 -4.635371,-0.3525 1.588109,-1.683374 5.255423,-3.675521 5.94087,-7.173777 z"
     id="path5154" />
</svg>
