<?xml version="1.0" encoding="UTF-8" standalone="no"?>
<svg
   xmlns:dc="http://purl.org/dc/elements/1.1/"
   xmlns:cc="http://creativecommons.org/ns#"
   xmlns:rdf="http://www.w3.org/1999/02/22-rdf-syntax-ns#"
   xmlns:svg="http://www.w3.org/2000/svg"
   xmlns="http://www.w3.org/2000/svg"
   id="svg5359"
   version="1.1"
   width="56.308655"
   height="56.25"
   viewBox="0 0 56.308655 56.25">
  <metadata
     id="metadata5365">
    <rdf:RDF>
      <cc:Work
         rdf:about="">
        <dc:format>image/svg+xml</dc:format>
        <dc:type
           rdf:resource="http://purl.org/dc/dcmitype/StillImage" />
        <dc:title></dc:title>
      </cc:Work>
    </rdf:RDF>
  </metadata>
  <defs
     id="defs5363" />
  <path
     fill="param(fill) #000"
     id="path5372"
     d="M 29.431797,2.6739828 C 23.067149,2.6297511 16.062918,4.8132254 9.3078474,9.8294727 a 0.69171904,0.7476062 0 0 0 -0.020557,0.017683 C 6.3633081,12.212259 4.6323515,13.868988 3.6868348,16.298609 c -0.9455146,2.42962 -1.073385,5.450269 -1.073385,10.573832 0,6.26535 0.5248012,10.372848 2.6383995,13.61137 2.1135984,3.238523 5.6900537,5.449477 11.5573427,8.182764 4.475943,2.085126 7.049376,3.184235 9.685059,3.219084 2.635685,0.03484 5.155854,-0.999279 9.517089,-2.966694 5.393282,-2.432987 9.239826,-4.995861 11.90148,-8.231469 2.661654,-3.235611 4.093238,-7.129262 4.703235,-12.039466 C 53.500239,21.22386 51.214551,14.706941 46.941856,10.086263 42.669162,5.4655862 36.432965,2.722605 29.431725,2.6739556 Z m -3.011219,3.3917713 c 1.846907,-0.066222 3.695851,0.046611 5.325966,0.3763726 0.0012,2.516e-4 0.0029,-2.54e-4 0.0042,0 7.979306,1.8137118 13.313949,6.3583913 15.469877,12.3007123 2.129225,5.868721 1.166294,13.209876 -3.687207,20.881987 L 31.763028,40.129607 32.979806,10.068578 A 0.69171904,0.7476062 0 0 0 32.275141,9.2892669 l -2.609722,0.053141 a 0.69171904,0.7476062 0 0 0 -0.680086,0.7306043 l -0.393302,16.471794 -0.389205,16.471798 a 0.69171904,0.7476062 0 0 0 0.684182,0.766025 l 6.399351,0.08413 2.57285,0.03542 -2.990733,1.164538 c -4.696072,1.249878 -8.215761,1.941875 -10.795321,2.014695 -2.586423,0.07302 -4.170705,-0.449063 -5.23583,-1.545336 -1.065126,-1.096275 -1.702409,-2.904879 -2.085321,-5.614581 -0.280108,-1.982206 -0.367027,-4.932974 -0.483434,-7.841814 l 8.361765,14.107296 a 0.69171904,0.7476062 0 0 0 0.995545,0.194834 l 2.097611,-1.68703 a 0.69171904,0.7476062 0 0 0 0.139294,-1.049413 l -5.899529,-8.466149 -5.584066,-8.018931 5.571776,-8.085349 5.883141,-8.536995 A 0.69171904,0.7476062 0 0 0 27.764474,9.559372 L 25.699638,7.3631325 a 0.69171904,0.7476062 0 0 0 -1.065192,0.1239864 l -8.824714,14.7803391 0,-4.286209 0,-8.4218707 c 0,-0.206509 0.157216,-0.5438581 0.680086,-0.9564269 0.522875,-0.4125688 1.347764,-0.8400165 2.359811,-1.2043895 2.024095,-0.7287433 4.798583,-1.2333786 7.571063,-1.3327993 z M 11.200614,11.946008 c 0.06792,0.144141 0.15795,0.367411 0.249909,0.712892 0.205566,0.772226 0.411312,1.959744 0.594052,3.431624 0.365477,2.943762 0.638955,7.041375 0.72515,11.547969 0.105321,5.50716 0.42413,11.475309 0.704664,15.054868 C 10.423373,41.02813 8.6404088,39.880348 7.7960933,38.32745 6.8387859,36.566734 6.6348604,33.847552 6.3498897,28.470941 6.0704795,23.19929 6.4892338,18.93905 7.4355666,16.086097 7.9087393,14.659621 8.5116742,13.590758 9.1808435,12.906865 9.7889155,12.285411 10.447414,11.999997 11.200614,11.946008 Z" />
</svg>
