<?xml version="1.0" encoding="UTF-8" standalone="no"?>
<svg
   xmlns:dc="http://purl.org/dc/elements/1.1/"
   xmlns:cc="http://creativecommons.org/ns#"
   xmlns:rdf="http://www.w3.org/1999/02/22-rdf-syntax-ns#"
   xmlns:svg="http://www.w3.org/2000/svg"
   xmlns="http://www.w3.org/2000/svg"
   id="svg4864"
   version="1.1"
   width="56.308655"
   height="56.25"
   viewBox="0 0 56.308655 56.25">
  <metadata
     id="metadata4870">
    <rdf:RDF>
      <cc:Work
         rdf:about="">
        <dc:format>image/svg+xml</dc:format>
        <dc:type
           rdf:resource="http://purl.org/dc/dcmitype/StillImage" />
        <dc:title></dc:title>
      </cc:Work>
    </rdf:RDF>
  </metadata>
  <defs
     id="defs4868" />
  <path
     fill="param(fill) #000"
     id="path4879"
     d="M 26.012121,1.7088507 A 0.42320944,0.4133413 0 0 0 25.632238,1.9652338 L 18.085783,20.024606 a 0.42320944,0.4133413 0 0 0 -0.0043,0.300156 l 7.565663,20.054156 a 0.42320944,0.4133413 0 0 0 0.151526,0.193851 l -7.307427,-0.04169 a 0.42320944,0.4133413 0 0 0 -0.424701,0.412715 l 0,13.886373 a 0.42320944,0.4133413 0 0 0 0.422567,0.412714 l 15.383159,0 a 0.42320944,0.4133413 0 0 0 0.42256,-0.412718 l 0,-13.796742 A 0.42320944,0.4133413 0 0 0 33.874434,40.62071 l -7.591272,-0.04378 a 0.42320944,0.4133413 0 0 0 0.155795,-0.19385 L 34.28633,20.47692 a 0.42320944,0.4133413 0 0 0 -0.0043,-0.308494 L 26.41548,1.9610649 A 0.42320944,0.4133413 0 0 0 26.012121,1.7088507 Z m 0.0875,3.45596 5.911674,14.2344703 -11.693164,0 5.78149,-14.2344703 z m -5.85832,16.0604183 11.857495,0 -6.19552,15.651872 -5.661975,-15.651872 z" />
</svg>
