<?xml version="1.0" encoding="UTF-8" standalone="no"?>
<svg
   xmlns:dc="http://purl.org/dc/elements/1.1/"
   xmlns:cc="http://creativecommons.org/ns#"
   xmlns:rdf="http://www.w3.org/1999/02/22-rdf-syntax-ns#"
   xmlns:svg="http://www.w3.org/2000/svg"
   xmlns="http://www.w3.org/2000/svg"
   id="svg5063"
   version="1.1"
   width="56.308655"
   height="56.25"
   viewBox="0 0 56.308655 56.25">
  <metadata
     id="metadata5069">
    <rdf:RDF>
      <cc:Work
         rdf:about="">
        <dc:format>image/svg+xml</dc:format>
        <dc:type
           rdf:resource="http://purl.org/dc/dcmitype/StillImage" />
        <dc:title></dc:title>
      </cc:Work>
    </rdf:RDF>
  </metadata>
  <defs
     id="defs5067" />
  <path
     fill="param(fill) #000"
     d="m 20.275391,3.5136719 c -0.772796,0.1064796 -0.368843,1.1139487 -0.466797,1.6306708 0.0139,4.032279 -0.02769,8.0699403 0.02059,12.0988863 0.304129,0.626914 1.17492,0.207362 1.715884,0.329037 0.648797,0.01784 0.08396,1.176688 0.206084,1.689691 -0.696601,11.504929 -1.447936,23.01175 -2.110357,34.515497 0.273185,0.666108 1.180566,0.234675 1.722632,0.357312 4.435137,-0.01403 8.875755,0.02799 13.307488,-0.02088 0.646051,-0.315829 0.159761,-1.193463 0.248893,-1.742477 -0.716109,-11.599713 -1.432219,-23.199425 -2.148328,-34.799138 0.627121,-0.109104 1.410072,0.224584 1.945429,-0.175762 0.249828,-0.787102 0.02477,-1.68622 0.101446,-2.512976 -0.02484,-3.693197 0.04935,-7.3994264 -0.0365,-11.084606 -0.379238,-0.5779675 -1.235185,-0.1571854 -1.805786,-0.2852501 -1.489037,0.041944 -3.005825,-0.081291 -4.478899,0.056694 -0.508926,0.4185058 -0.123359,1.2175099 -0.24327,1.7855908 0,0.6359052 0,1.2718105 0,1.9077157 -0.590749,-0.071473 -1.466926,0.1424819 -1.880859,-0.1058067 -0.04409,-1.1292861 0.08433,-2.2877746 -0.05669,-3.4009235 -0.418505,-0.5089261 -1.217509,-0.123359 -1.78559,-0.2432698 -1.418458,0 -2.836915,0 -4.255372,0 z m 1.404297,1.8710937 c 0.940104,0 1.880208,0 2.820312,0 0.04389,1.1645971 -0.08405,2.3582521 0.05669,3.5067303 0.418506,0.5089259 1.217509,0.1233589 1.78559,0.2432697 1.176321,-0.042896 2.381132,0.082663 3.541399,-0.056693 0.508926,-0.4185058 0.123359,-1.2175098 0.24327,-1.7855907 0,-0.6359053 0,-1.2718105 0,-1.9077158 0.940104,0 1.880209,0 2.820313,0 0,3.4388021 0,6.8776044 0,10.3164064 -3.755859,0 -7.511719,0 -11.267578,0 0,-3.438802 0,-6.8776043 0,-10.3164064 z m 2.023437,12.1875004 c 2.406901,0 4.813802,0 7.220703,0 0.722656,11.563802 1.445313,23.127604 2.167969,34.691406 -3.852214,0 -7.704427,0 -11.556641,0 0.722656,-11.563802 1.445313,-23.127604 2.167969,-34.691406 z"
     id="path5075" />
</svg>
